<svg width="44" height="38" viewBox="0 0 44 38" fill="none" xmlns="http://www.w3.org/2000/svg">
<path id="Union" fill-rule="evenodd" clip-rule="evenodd" d="M8.25 0.00195312H35.75V19.502C35.75 25.9863 30.8125 31.3175 24.4921 31.941C26.7314 33.9608 28.9122 35.4025 32.18 37.0191C32.6612 37.2571 32.4956 38.002 31.9588 38.002H11.9352C11.4038 38.002 11.2357 37.2733 11.7092 37.032C14.9912 35.359 17.2176 33.9322 19.4755 31.9378C13.1706 31.2993 8.25 25.9753 8.25 19.502V0.00195312ZM7.81701 23.7921C7.89078 23.7921 7.96354 23.775 8.02951 23.742C8.39302 24.6781 8.84859 25.5758 9.38951 26.422C6.88749 25.9329 4.633 24.5901 3.01146 22.6229C1.38991 20.6557 0.502 18.1863 0.499512 15.637V11.877C0.500835 10.9159 0.883178 9.99468 1.56271 9.31515C2.24224 8.63562 3.16351 8.25328 4.12451 8.25195H6.99951V10.252H4.68951C4.10955 10.252 3.55327 10.482 3.14271 10.8916C2.73215 11.3012 2.50084 11.857 2.49951 12.437V15.637C2.5064 17.3304 2.98854 18.9878 3.89105 20.4207C4.79356 21.8536 6.08019 23.0043 7.60451 23.742C7.67049 23.775 7.74324 23.7921 7.81701 23.7921ZM37.2495 8.25195H40.1245C41.0855 8.25328 42.0068 8.63562 42.6863 9.31515C43.3658 9.99468 43.7482 10.9159 43.7495 11.877V15.637C43.7479 18.1879 42.8598 20.659 41.2372 22.6273C39.6146 24.5956 37.3583 25.9388 34.8545 26.427C35.3953 25.579 35.8509 24.6796 36.2145 23.742C36.281 23.7762 36.3547 23.794 36.4295 23.794C36.5043 23.794 36.578 23.7762 36.6445 23.742C38.1681 23.0047 39.4542 21.8547 40.3566 20.4228C41.2591 18.9909 41.7417 17.3345 41.7495 15.642V12.442C41.7495 11.862 41.5194 11.3057 41.1098 10.8952C40.7002 10.4846 40.1444 10.2533 39.5645 10.252H37.2495V8.25195Z" fill="#F0BE0C"/>
</svg>
