<svg width="63" height="40" viewBox="0 0 63 40" fill="none" xmlns="http://www.w3.org/2000/svg">
<path d="M8 5.36401H63L56.5 36.364H8V5.36401Z" fill="#040404"/>
<mask id="path-2-outside-1_855_123" maskUnits="userSpaceOnUse" x="4.09082" y="4.8186" width="15" height="18" fill="black">
<rect fill="white" x="4.09082" y="4.8186" width="15" height="18"/>
<path d="M6.5823 20.8186L9.08798 6.34133L13.0951 6.35127C14.4871 6.35127 15.5477 6.68934 16.2769 7.36548C17.0061 8.03499 17.3276 8.98953 17.2414 10.2291C17.1287 11.7007 16.3598 12.7679 14.9346 13.4308C15.445 13.6429 15.8195 14.0142 16.0581 14.5445C16.2968 15.0681 16.3896 15.7144 16.3366 16.4834C16.2371 17.829 15.7565 18.8896 14.8948 19.6652C14.0397 20.4341 12.8896 20.8186 11.4445 20.8186H6.5823ZM10.5297 14.5246L9.8536 18.3925L11.5241 18.4124C12.1538 18.3991 12.6476 18.1704 13.0056 17.7263C13.3702 17.2755 13.5591 16.6358 13.5724 15.8072C13.5724 15.0118 13.2376 14.5875 12.5681 14.5345L10.5297 14.5246ZM10.8877 12.3967L12.24 12.4166C12.9625 12.4034 13.5094 12.1581 13.8806 11.6808C14.2518 11.2035 14.4109 10.5937 14.3579 9.85127C14.2916 9.18177 13.8939 8.82713 13.1647 8.78735L11.5241 8.77741L10.8877 12.3967Z"/>
</mask>
<path d="M6.5823 20.8186L9.08798 6.34133L13.0951 6.35127C14.4871 6.35127 15.5477 6.68934 16.2769 7.36548C17.0061 8.03499 17.3276 8.98953 17.2414 10.2291C17.1287 11.7007 16.3598 12.7679 14.9346 13.4308C15.445 13.6429 15.8195 14.0142 16.0581 14.5445C16.2968 15.0681 16.3896 15.7144 16.3366 16.4834C16.2371 17.829 15.7565 18.8896 14.8948 19.6652C14.0397 20.4341 12.8896 20.8186 11.4445 20.8186H6.5823ZM10.5297 14.5246L9.8536 18.3925L11.5241 18.4124C12.1538 18.3991 12.6476 18.1704 13.0056 17.7263C13.3702 17.2755 13.5591 16.6358 13.5724 15.8072C13.5724 15.0118 13.2376 14.5875 12.5681 14.5345L10.5297 14.5246ZM10.8877 12.3967L12.24 12.4166C12.9625 12.4034 13.5094 12.1581 13.8806 11.6808C14.2518 11.2035 14.4109 10.5937 14.3579 9.85127C14.2916 9.18177 13.8939 8.82713 13.1647 8.78735L11.5241 8.77741L10.8877 12.3967Z" fill="#040404"/>
<path d="M6.5823 20.8186L5.14906 20.5705L4.85438 22.2731H6.5823V20.8186ZM9.08798 6.34133L9.09159 4.88679L7.86408 4.88374L7.65474 6.09327L9.08798 6.34133ZM13.0951 6.35127L13.0915 7.80582H13.0951V6.35127ZM16.2769 7.36548L15.2879 8.43206L15.2931 8.43689L16.2769 7.36548ZM17.2414 10.2291L18.6917 10.3402L18.6924 10.33L17.2414 10.2291ZM14.9346 13.4308L14.3211 12.112L11.3246 13.5057L14.3764 14.774L14.9346 13.4308ZM16.0581 14.5445L14.7317 15.1414L14.7346 15.1476L16.0581 14.5445ZM16.3366 16.4834L17.7872 16.5906L17.7877 16.5835L16.3366 16.4834ZM14.8948 19.6652L15.8674 20.7468L15.8678 20.7463L14.8948 19.6652ZM10.5297 14.5246L10.5368 13.07L9.30845 13.064L9.09692 14.2741L10.5297 14.5246ZM9.8536 18.3925L8.42079 18.142L8.12631 19.8266L9.83629 19.8469L9.8536 18.3925ZM11.5241 18.4124L11.5067 19.8668L11.5307 19.8671L11.5547 19.8666L11.5241 18.4124ZM13.0056 17.7263L11.8747 16.8116L11.8731 16.8135L13.0056 17.7263ZM13.5724 15.8072L15.0267 15.8305L15.0269 15.8189V15.8072H13.5724ZM12.5681 14.5345L12.6829 13.0845L12.6292 13.0802L12.5752 13.08L12.5681 14.5345ZM10.8877 12.3967L9.45512 12.1448L9.15953 13.826L10.8663 13.8511L10.8877 12.3967ZM12.24 12.4166L12.2186 13.871L12.2426 13.8714L12.2667 13.8709L12.24 12.4166ZM14.3579 9.85127L15.8087 9.74764L15.8073 9.72778L15.8053 9.70796L14.3579 9.85127ZM13.1647 8.78735L13.2439 7.33497L13.2087 7.33305L13.1735 7.33284L13.1647 8.78735ZM11.5241 8.77741L11.5329 7.32289L10.3043 7.31545L10.0915 8.52553L11.5241 8.77741ZM8.01553 21.0667L10.5212 6.58939L7.65474 6.09327L5.14906 20.5705L8.01553 21.0667ZM9.08437 7.79587L13.0915 7.80582L13.0987 4.89673L9.09159 4.88679L9.08437 7.79587ZM13.0951 7.80582C14.2675 7.80582 14.919 8.09001 15.2879 8.43205L17.2659 6.29891C16.1764 5.28867 14.7067 4.89673 13.0951 4.89673V7.80582ZM15.2931 8.43689C15.6149 8.73235 15.8544 9.20672 15.7903 10.1282L18.6924 10.33C18.8007 8.77234 18.3972 7.33763 17.2607 6.29406L15.2931 8.43689ZM15.7911 10.1181C15.7217 11.0248 15.3077 11.6531 14.3211 12.112L15.548 14.7497C17.4118 13.8828 18.5357 12.3766 18.6917 10.3402L15.7911 10.1181ZM14.3764 14.774C14.526 14.8362 14.6362 14.9291 14.7317 15.1413L17.3846 13.9476C17.0028 13.0992 16.364 12.4497 15.4928 12.0876L14.3764 14.774ZM14.7346 15.1476C14.8446 15.3891 14.9273 15.7771 14.8855 16.3833L17.7877 16.5835C17.8519 15.6518 17.749 14.7472 17.3817 13.9413L14.7346 15.1476ZM14.886 16.3762C14.8093 17.4135 14.4592 18.1003 13.9218 18.584L15.8678 20.7463C17.0539 19.6789 17.6649 18.2445 17.7871 16.5906L14.886 16.3762ZM13.9222 18.5836C13.3976 19.0554 12.6261 19.3641 11.4445 19.3641V22.2731C13.1531 22.2731 14.6818 21.8129 15.8674 20.7468L13.9222 18.5836ZM11.4445 19.3641H6.5823V22.2731H11.4445V19.3641ZM9.09692 14.2741L8.42079 18.142L11.2864 18.6429L11.9626 14.775L9.09692 14.2741ZM9.83629 19.8469L11.5067 19.8668L11.5414 16.9579L9.87092 16.938L9.83629 19.8469ZM11.5547 19.8666C12.5631 19.8453 13.4806 19.4549 14.1381 18.639L11.8731 16.8135C11.8147 16.8859 11.7445 16.9528 11.4934 16.9581L11.5547 19.8666ZM14.1365 18.641C14.777 17.8491 15.0104 16.8482 15.0267 15.8305L12.118 15.784C12.1078 16.4234 11.9633 16.7019 11.8747 16.8116L14.1365 18.641ZM15.0269 15.8072C15.0269 15.2312 14.9091 14.5566 14.4632 13.9915C13.9863 13.3871 13.3165 13.1347 12.6829 13.0845L12.4532 15.9845C12.4796 15.9866 12.4472 15.9881 12.3831 15.9576C12.3127 15.9242 12.2383 15.8681 12.1794 15.7935C12.0682 15.6526 12.1178 15.5878 12.1178 15.8072H15.0269ZM12.5752 13.08L10.5368 13.07L10.5226 15.9791L12.561 15.989L12.5752 13.08ZM10.8663 13.8511L12.2186 13.871L12.2614 10.9622L10.9091 10.9423L10.8663 13.8511ZM12.2667 13.8709C13.3333 13.8513 14.3342 13.4668 15.0287 12.5738L12.7324 10.7878C12.6846 10.8494 12.5917 10.9554 12.2133 10.9623L12.2667 13.8709ZM15.0287 12.5738C15.6684 11.7514 15.8812 10.7618 15.8087 9.74764L12.907 9.95491C12.9406 10.4256 12.8352 10.6557 12.7324 10.7878L15.0287 12.5738ZM15.8053 9.70796C15.746 9.1092 15.5153 8.47671 14.9779 7.99752C14.4556 7.53185 13.8169 7.36622 13.2439 7.33497L13.0855 10.2397C13.2416 10.2483 13.1663 10.2798 13.0418 10.1688C12.9815 10.115 12.9422 10.055 12.9211 10.0085C12.9021 9.96662 12.9065 9.95504 12.9104 9.99459L15.8053 9.70796ZM13.1735 7.33284L11.5329 7.32289L11.5152 10.2319L13.1559 10.2419L13.1735 7.33284ZM10.0915 8.52553L9.45512 12.1448L12.3203 12.6486L12.9566 9.02929L10.0915 8.52553Z" fill="#040404" mask="url(#path-2-outside-1_855_123)"/>
<mask id="path-4-outside-2_855_123" maskUnits="userSpaceOnUse" x="3.63623" y="3.36401" width="13" height="17" fill="black">
<rect fill="white" x="3.63623" y="3.36401" width="13" height="17"/>
<path d="M5.12771 19.364L7.63339 4.88674L11.6405 4.89668C13.0325 4.89668 14.0931 5.23475 14.8223 5.91089C15.5515 6.5804 15.873 7.53494 15.7868 8.77453C15.6741 10.2461 14.9052 11.3134 13.48 11.9762C13.9904 12.1884 14.3649 12.5596 14.6036 13.0899C14.8422 13.6135 14.935 14.2598 14.882 15.0288C14.7825 16.3744 14.3019 17.435 13.4402 18.2106C12.5851 18.9795 11.435 19.364 9.98992 19.364H5.12771ZM9.07515 13.07L8.39901 16.9379L10.0695 16.9578C10.6992 16.9445 11.193 16.7158 11.551 16.2717C11.9156 15.8209 12.1045 15.1812 12.1178 14.3527C12.1178 13.5572 11.783 13.133 11.1135 13.0799L9.07515 13.07ZM9.43311 10.9421L10.7854 10.962C11.5079 10.9488 12.0548 10.7035 12.426 10.2262C12.7972 9.74896 12.9563 9.13911 12.9033 8.39668C12.837 7.72718 12.4393 7.37254 11.7101 7.33276L10.0695 7.32282L9.43311 10.9421Z"/>
</mask>
<path d="M5.12771 19.364L7.63339 4.88674L11.6405 4.89668C13.0325 4.89668 14.0931 5.23475 14.8223 5.91089C15.5515 6.5804 15.873 7.53494 15.7868 8.77453C15.6741 10.2461 14.9052 11.3134 13.48 11.9762C13.9904 12.1884 14.3649 12.5596 14.6036 13.0899C14.8422 13.6135 14.935 14.2598 14.882 15.0288C14.7825 16.3744 14.3019 17.435 13.4402 18.2106C12.5851 18.9795 11.435 19.364 9.98992 19.364H5.12771ZM9.07515 13.07L8.39901 16.9379L10.0695 16.9578C10.6992 16.9445 11.193 16.7158 11.551 16.2717C11.9156 15.8209 12.1045 15.1812 12.1178 14.3527C12.1178 13.5572 11.783 13.133 11.1135 13.0799L9.07515 13.07ZM9.43311 10.9421L10.7854 10.962C11.5079 10.9488 12.0548 10.7035 12.426 10.2262C12.7972 9.74896 12.9563 9.13911 12.9033 8.39668C12.837 7.72718 12.4393 7.37254 11.7101 7.33276L10.0695 7.32282L9.43311 10.9421Z" fill="white"/>
<path d="M5.12771 19.364L4.41109 19.24L4.26375 20.0913H5.12771V19.364ZM7.63339 4.88674L7.63519 4.15947L7.02144 4.15795L6.91677 4.76271L7.63339 4.88674ZM11.6405 4.89668L11.6387 5.62396H11.6405V4.89668ZM14.8223 5.91089L14.3278 6.44418L14.3304 6.4466L14.8223 5.91089ZM15.7868 8.77453L16.512 8.83006L16.5123 8.82496L15.7868 8.77453ZM13.48 11.9762L13.1733 11.3168L11.675 12.0137L13.2009 12.6478L13.48 11.9762ZM14.6036 13.0899L13.9403 13.3883L13.9418 13.3914L14.6036 13.0899ZM14.882 15.0288L15.6073 15.0824L15.6075 15.0788L14.882 15.0288ZM13.4402 18.2106L13.9265 18.7514L13.9267 18.7512L13.4402 18.2106ZM9.07515 13.07L9.0787 12.3427L8.4645 12.3397L8.35874 12.9447L9.07515 13.07ZM8.39901 16.9379L7.68261 16.8126L7.53537 17.6549L8.39036 17.6651L8.39901 16.9379ZM10.0695 16.9578L10.0608 17.685L10.0728 17.6851L10.0848 17.6849L10.0695 16.9578ZM11.551 16.2717L10.9855 15.8143L10.9848 15.8153L11.551 16.2717ZM12.1178 14.3526L12.845 14.3643V14.3526H12.1178ZM11.1135 13.0799L11.1709 12.3549L11.144 12.3528L11.1171 12.3527L11.1135 13.0799ZM9.43311 10.9421L8.71682 10.8162L8.56902 11.6568L9.42241 11.6693L9.43311 10.9421ZM10.7854 10.962L10.7747 11.6892L10.7867 11.6894L10.7987 11.6892L10.7854 10.962ZM12.9033 8.39668L13.6287 8.34487L13.628 8.33494L13.627 8.32503L12.9033 8.39668ZM11.7101 7.33276L11.7497 6.60657L11.7321 6.60561L11.7145 6.6055L11.7101 7.33276ZM10.0695 7.32282L10.0739 6.59556L9.45956 6.59184L9.35318 7.19688L10.0695 7.32282ZM5.84433 19.488L8.35001 5.01077L6.91677 4.76271L4.41109 19.24L5.84433 19.488ZM7.63158 5.61401L11.6387 5.62395L11.6423 4.16941L7.63519 4.15947L7.63158 5.61401ZM11.6405 5.62396C12.9227 5.62396 13.7788 5.93509 14.3278 6.44417L15.3168 5.3776C14.4075 4.53442 13.1423 4.16941 11.6405 4.16941V5.62396ZM14.3304 6.4466C14.8559 6.92908 15.1364 7.64354 15.0613 8.72409L16.5123 8.82496C16.6095 7.42635 16.247 6.23172 15.3142 5.37518L14.3304 6.4466ZM15.0616 8.719C14.9706 9.90815 14.3791 10.7559 13.1733 11.3168L13.7867 12.6357C15.4312 11.8708 16.3776 10.5841 16.5119 8.83005L15.0616 8.719ZM13.2009 12.6478C13.5309 12.785 13.7733 13.017 13.9403 13.3883L15.2668 12.7914C14.9566 12.1021 14.4499 11.5917 13.7591 11.3046L13.2009 12.6478ZM13.9418 13.3914C14.1161 13.774 14.2038 14.2912 14.1564 14.9787L15.6075 15.0788C15.6662 14.2285 15.5683 13.4531 15.2654 12.7883L13.9418 13.3914ZM14.1567 14.9752C14.0686 16.1667 13.6533 17.0404 12.9537 17.67L13.9267 18.7512C14.9506 17.8297 15.4964 16.5822 15.6073 15.0824L14.1567 14.9752ZM12.9539 17.6698C12.2641 18.2902 11.3033 18.6367 9.98992 18.6367V20.0913C11.5667 20.0913 12.9061 19.6689 13.9265 18.7514L12.9539 17.6698ZM9.98992 18.6367H5.12771V20.0913H9.98992V18.6367ZM8.35874 12.9447L7.68261 16.8126L9.11542 17.0631L9.79156 13.1952L8.35874 12.9447ZM8.39036 17.6651L10.0608 17.685L10.0781 16.2305L8.40767 16.2107L8.39036 17.6651ZM10.0848 17.6849C10.9039 17.6676 11.6095 17.358 12.1173 16.7281L10.9848 15.8153C10.7766 16.0736 10.4946 16.2214 10.0542 16.2307L10.0848 17.6849ZM12.1165 16.729C12.619 16.1077 12.8302 15.2874 12.8449 14.3643L11.3906 14.341C11.3788 15.075 11.2122 15.5341 10.9855 15.8143L12.1165 16.729ZM12.845 14.3526C12.845 13.8658 12.7443 13.376 12.4376 12.9874C12.1155 12.5791 11.6551 12.3933 11.1709 12.3549L11.0561 13.8049C11.2414 13.8196 11.2831 13.8724 11.2958 13.8884C11.3239 13.924 11.3905 14.0441 11.3905 14.3526H12.845ZM11.1171 12.3527L9.0787 12.3427L9.0716 13.7972L11.11 13.8072L11.1171 12.3527ZM9.42241 11.6693L10.7747 11.6892L10.7961 10.2348L9.4438 10.2149L9.42241 11.6693ZM10.7987 11.6892C11.6933 11.6728 12.4672 11.3579 13.0001 10.6727L11.8519 9.77973C11.6424 10.0491 11.3225 10.2248 10.772 10.2349L10.7987 11.6892ZM13.0001 10.6727C13.5055 10.0229 13.6914 9.22316 13.6287 8.34487L12.1779 8.4485C12.2212 9.05506 12.0889 9.47503 11.8519 9.77973L13.0001 10.6727ZM13.627 8.32503C13.5808 7.85827 13.4074 7.41401 13.0393 7.08575C12.6787 6.76425 12.2185 6.63214 11.7497 6.60657L11.6705 8.05896C11.9309 8.07316 12.0341 8.13825 12.0712 8.17139C12.1008 8.19778 12.1595 8.26559 12.1795 8.46834L13.627 8.32503ZM11.7145 6.6055L10.0739 6.59556L10.0651 8.05008L11.7057 8.06002L11.7145 6.6055ZM9.35318 7.19688L8.71682 10.8162L10.1494 11.0681L10.7858 7.44876L9.35318 7.19688Z" fill="#040404" mask="url(#path-4-outside-2_855_123)"/>
<mask id="path-6-outside-3_855_123" maskUnits="userSpaceOnUse" x="25.9089" y="4.09131" width="37" height="17" fill="black">
<rect fill="white" x="25.9089" y="4.09131" width="37" height="17"/>
<path d="M35.6547 17.1282H31.8067L30.5439 20.0913H27.4416L34.3422 5.61404H36.9572L38.8564 20.0913H35.9033L35.6547 17.1282ZM32.8507 14.6922H35.4558L35.0481 9.56148L32.8507 14.6922ZM45.5283 14.8015H44.0765L43.1618 20.0913H40.3081L42.8138 5.61404L47.1888 5.62398C48.4814 5.66375 49.4724 6.06148 50.1618 6.81716C50.8512 7.57284 51.1428 8.60362 51.0368 9.90949C50.8711 11.8915 49.9695 13.2703 48.3322 14.0459L49.7839 19.9322V20.0913H46.7214L45.5283 14.8015ZM44.4942 12.3655L45.9956 12.3853C46.685 12.3721 47.2285 12.1003 47.6263 11.57C48.024 11.0331 48.2195 10.3238 48.2129 9.44216C48.1864 8.57379 47.8052 8.11309 47.0694 8.06006L45.2498 8.05012L44.4942 12.3655ZM51.3351 20.0913L53.8408 5.61404L57.4104 5.62398C58.4643 5.65049 59.3526 5.92559 60.0751 6.44926C60.8043 6.97294 61.3247 7.69879 61.6362 8.62682C61.9544 9.55485 62.0406 10.5923 61.8947 11.739L61.5766 13.8569C61.2849 15.8058 60.5789 17.3304 59.4587 18.4308C58.345 19.5312 56.943 20.0847 55.2527 20.0913H51.3351ZM56.2768 8.05012L54.6064 17.6652L55.3123 17.6851C56.3 17.6851 57.0657 17.4 57.6092 16.8299C58.1528 16.2532 58.5174 15.3285 58.703 14.0558L59.041 11.7092C59.1338 10.9469 59.1703 10.3901 59.1504 10.0388C59.1173 9.37587 58.9482 8.88534 58.6433 8.56716C58.3384 8.24898 57.8876 8.07995 57.291 8.06006L56.2768 8.05012Z"/>
</mask>
<path d="M35.6547 17.1282H31.8067L30.5439 20.0913H27.4416L34.3422 5.61404H36.9572L38.8564 20.0913H35.9033L35.6547 17.1282ZM32.8507 14.6922H35.4558L35.0481 9.56148L32.8507 14.6922ZM45.5283 14.8015H44.0765L43.1618 20.0913H40.3081L42.8138 5.61404L47.1888 5.62398C48.4814 5.66375 49.4724 6.06148 50.1618 6.81716C50.8512 7.57284 51.1428 8.60362 51.0368 9.90949C50.8711 11.8915 49.9695 13.2703 48.3322 14.0459L49.7839 19.9322V20.0913H46.7214L45.5283 14.8015ZM44.4942 12.3655L45.9956 12.3853C46.685 12.3721 47.2285 12.1003 47.6263 11.57C48.024 11.0331 48.2195 10.3238 48.2129 9.44216C48.1864 8.57379 47.8052 8.11309 47.0694 8.06006L45.2498 8.05012L44.4942 12.3655ZM51.3351 20.0913L53.8408 5.61404L57.4104 5.62398C58.4643 5.65049 59.3526 5.92559 60.0751 6.44926C60.8043 6.97294 61.3247 7.69879 61.6362 8.62682C61.9544 9.55485 62.0406 10.5923 61.8947 11.739L61.5766 13.8569C61.2849 15.8058 60.5789 17.3304 59.4587 18.4308C58.345 19.5312 56.943 20.0847 55.2527 20.0913H51.3351ZM56.2768 8.05012L54.6064 17.6652L55.3123 17.6851C56.3 17.6851 57.0657 17.4 57.6092 16.8299C58.1528 16.2532 58.5174 15.3285 58.703 14.0558L59.041 11.7092C59.1338 10.9469 59.1703 10.3901 59.1504 10.0388C59.1173 9.37587 58.9482 8.88534 58.6433 8.56716C58.3384 8.24898 57.8876 8.07995 57.291 8.06006L56.2768 8.05012Z" fill="#040404"/>
<path d="M35.6547 17.1282L36.3794 17.0674L36.3235 16.401H35.6547V17.1282ZM31.8067 17.1282V16.401H31.326L31.1376 16.8431L31.8067 17.1282ZM30.5439 20.0913V20.8186H31.0245L31.2129 20.3764L30.5439 20.0913ZM27.4416 20.0913L26.7851 19.7784L26.2893 20.8186H27.4416V20.0913ZM34.3422 5.61404V4.88676H33.8832L33.6857 5.30111L34.3422 5.61404ZM36.9572 5.61404L37.6783 5.51944L37.5953 4.88676H36.9572V5.61404ZM38.8564 20.0913V20.8186H39.6853L39.5775 19.9967L38.8564 20.0913ZM35.9033 20.0913L35.1785 20.1521L35.2344 20.8186H35.9033V20.0913ZM32.8507 14.6922L32.1822 14.4058L31.748 15.4194H32.8507V14.6922ZM35.4558 14.6922V15.4194H36.2432L36.1808 14.6346L35.4558 14.6922ZM35.0481 9.56148L35.7731 9.50387L34.3796 9.27515L35.0481 9.56148ZM35.6547 16.401H31.8067V17.8555H35.6547V16.401ZM31.1376 16.8431L29.8748 19.8062L31.2129 20.3764L32.4757 17.4134L31.1376 16.8431ZM30.5439 19.364H27.4416V20.8186H30.5439V19.364ZM28.0981 20.4042L34.9987 5.92696L33.6857 5.30111L26.7851 19.7784L28.0981 20.4042ZM34.3422 6.34131H36.9572V4.88676H34.3422V6.34131ZM36.2361 5.70863L38.1353 20.1859L39.5775 19.9967L37.6783 5.51944L36.2361 5.70863ZM38.8564 19.364H35.9033V20.8186H38.8564V19.364ZM36.628 20.0305L36.3794 17.0674L34.9299 17.189L35.1785 20.1521L36.628 20.0305ZM32.8507 15.4194H35.4558V13.9649H32.8507V15.4194ZM36.1808 14.6346L35.7731 9.50387L34.3232 9.61909L34.7308 14.7498L36.1808 14.6346ZM34.3796 9.27515L32.1822 14.4058L33.5192 14.9785L35.7167 9.84781L34.3796 9.27515ZM45.5283 14.8015L46.2377 14.6415L46.1098 14.0743H45.5283V14.8015ZM44.0765 14.8015V14.0743H43.4643L43.3599 14.6776L44.0765 14.8015ZM43.1618 20.0913V20.8186H43.7741L43.8784 20.2152L43.1618 20.0913ZM40.3081 20.0913L39.5915 19.9673L39.4441 20.8186H40.3081V20.0913ZM42.8138 5.61404L42.8154 4.88677L42.2018 4.88537L42.0971 5.49001L42.8138 5.61404ZM47.1888 5.62398L47.2111 4.89705L47.2008 4.89673L47.1904 4.89671L47.1888 5.62398ZM50.1618 6.81716L50.6991 6.32701L50.1618 6.81716ZM51.0368 9.90949L51.7615 9.97009L51.7617 9.96836L51.0368 9.90949ZM48.3322 14.0459L48.0209 13.3886L47.4838 13.643L47.6261 14.22L48.3322 14.0459ZM49.7839 19.9322H50.5112V19.8439L50.4901 19.7581L49.7839 19.9322ZM49.7839 20.0913V20.8186H50.5112V20.0913H49.7839ZM46.7214 20.0913L46.012 20.2513L46.1399 20.8186H46.7214V20.0913ZM44.4942 12.3655L43.7778 12.24L43.6305 13.0814L44.4845 13.0927L44.4942 12.3655ZM45.9956 12.3853L45.986 13.1126L45.9978 13.1127L46.0096 13.1125L45.9956 12.3853ZM47.6263 11.57L48.2081 12.0064L48.2107 12.0029L47.6263 11.57ZM48.2129 9.44216L48.9402 9.43669L48.9401 9.42833L48.9398 9.41996L48.2129 9.44216ZM47.0694 8.06006L47.1217 7.33467L47.0976 7.33293L47.0734 7.3328L47.0694 8.06006ZM45.2498 8.05012L45.2538 7.32285L44.6394 7.3195L44.5335 7.92467L45.2498 8.05012ZM45.5283 14.0743H44.0765V15.5288H45.5283V14.0743ZM43.3599 14.6776L42.4451 19.9674L43.8784 20.2152L44.7932 14.9255L43.3599 14.6776ZM43.1618 19.364H40.3081V20.8186H43.1618V19.364ZM41.0247 20.2153L43.5304 5.73807L42.0971 5.49001L39.5915 19.9673L41.0247 20.2153ZM42.8121 6.34131L47.1871 6.35125L47.1904 4.89671L42.8154 4.88677L42.8121 6.34131ZM47.1664 6.35091C48.3173 6.38632 49.1006 6.73307 49.6245 7.30732L50.6991 6.32701C49.8442 5.38989 48.6454 4.94118 47.2111 4.89705L47.1664 6.35091ZM49.6245 7.30732C50.1421 7.87472 50.4065 8.68602 50.3119 9.85062L51.7617 9.96836C51.8792 8.52122 51.5602 7.27096 50.6991 6.32701L49.6245 7.30732ZM50.312 9.84889C50.1654 11.6032 49.3974 12.7366 48.0209 13.3886L48.6436 14.7031C50.5417 13.804 51.5768 12.1798 51.7615 9.97009L50.312 9.84889ZM47.6261 14.22L49.0778 20.1064L50.4901 19.7581L49.0383 13.8717L47.6261 14.22ZM49.0567 19.9322V20.0913H50.5112V19.9322H49.0567ZM49.7839 19.364H46.7214V20.8186H49.7839V19.364ZM47.4309 19.9313L46.2377 14.6415L44.8188 14.9616L46.012 20.2513L47.4309 19.9313ZM44.4845 13.0927L45.986 13.1126L46.0052 11.6581L44.5038 11.6382L44.4845 13.0927ZM46.0096 13.1125C46.9124 13.0951 47.6698 12.7241 48.2081 12.0064L47.0444 11.1336C46.7873 11.4765 46.4575 11.6491 45.9816 11.6582L46.0096 13.1125ZM48.2107 12.0029C48.7284 11.304 48.9476 10.4258 48.9402 9.43669L47.4857 9.44763C47.4915 10.2218 47.3196 10.7621 47.0419 11.1371L48.2107 12.0029ZM48.9398 9.41996C48.9238 8.89494 48.7986 8.38195 48.4675 7.98175C48.1219 7.56406 47.6382 7.37189 47.1217 7.33467L47.0172 8.78545C47.2365 8.80126 47.3112 8.86595 47.3468 8.90896C47.3969 8.96947 47.4755 9.12101 47.486 9.46436L48.9398 9.41996ZM47.0734 7.3328L45.2538 7.32285L45.2459 8.77738L47.0655 8.78732L47.0734 7.3328ZM44.5335 7.92467L43.7778 12.24L45.2105 12.4909L45.9662 8.17556L44.5335 7.92467ZM51.3351 20.0913L50.6185 19.9673L50.4711 20.8186H51.3351V20.0913ZM53.8408 5.61404L53.8428 4.88677L53.2288 4.88506L53.1241 5.49001L53.8408 5.61404ZM57.4104 5.62398L57.4286 4.89694L57.4205 4.89673L57.4124 4.89671L57.4104 5.62398ZM60.0751 6.44926L59.6483 7.03814L59.6509 7.03998L60.0751 6.44926ZM61.6362 8.62682L60.9467 8.85829L60.9482 8.86269L61.6362 8.62682ZM61.8947 11.739L62.6139 11.8471L62.6152 11.8389L62.6162 11.8308L61.8947 11.739ZM61.5765 13.8569L60.8573 13.7489L60.8573 13.7493L61.5765 13.8569ZM59.4587 18.4308L58.949 17.912L58.9475 17.9135L59.4587 18.4308ZM55.2527 20.0913V20.8186L55.2555 20.8186L55.2527 20.0913ZM56.2768 8.05012L56.284 7.32288L55.6661 7.31682L55.5603 7.92563L56.2768 8.05012ZM54.6064 17.6652L53.8898 17.5407L53.746 18.3685L54.5859 18.3922L54.6064 17.6652ZM55.3123 17.6851L55.2919 18.412L55.3021 18.4123H55.3123V17.6851ZM57.6092 16.8299L58.1356 17.3318L58.1385 17.3288L57.6092 16.8299ZM58.703 14.0558L59.4226 14.1607L59.4228 14.1595L58.703 14.0558ZM59.041 11.7092L59.7609 11.8129L59.762 11.805L59.763 11.7971L59.041 11.7092ZM59.1504 10.0388L58.424 10.0751L58.4243 10.0799L59.1504 10.0388ZM57.291 8.06006L57.3153 7.33319L57.3067 7.3329L57.2982 7.33282L57.291 8.06006ZM52.0517 20.2153L54.5574 5.73807L53.1241 5.49001L50.6185 19.9673L52.0517 20.2153ZM53.8387 6.34131L57.4083 6.35125L57.4124 4.89671L53.8428 4.88677L53.8387 6.34131ZM57.3921 6.35102C58.3263 6.37453 59.0652 6.6155 59.6483 7.03814L60.5019 5.86039C59.64 5.23568 58.6023 4.92646 57.4286 4.89694L57.3921 6.35102ZM59.6509 7.03998C60.2449 7.46656 60.6791 8.06108 60.9468 8.85828L62.3257 8.39536C61.9702 7.3365 61.3637 6.47931 60.4994 5.85855L59.6509 7.03998ZM60.9482 8.86269C61.2245 9.66833 61.3076 10.5913 61.1733 11.6473L62.6162 11.8308C62.7736 10.5932 62.6843 9.44137 62.3242 8.39095L60.9482 8.86269ZM61.1755 11.631L60.8573 13.7489L62.2958 13.965L62.6139 11.8471L61.1755 11.631ZM60.8573 13.7493C60.583 15.5823 59.9306 16.9478 58.949 17.912L59.9683 18.9496C61.2272 17.713 61.9868 16.0292 62.2958 13.9646L60.8573 13.7493ZM58.9475 17.9135C57.9807 18.8687 56.7665 19.3581 55.2498 19.364L55.2555 20.8186C57.1196 20.8113 58.7093 20.1936 59.9698 18.9481L58.9475 17.9135ZM55.2527 19.364H51.3351V20.8186H55.2527V19.364ZM55.5603 7.92563L53.8898 17.5407L55.3229 17.7897L56.9934 8.1746L55.5603 7.92563ZM54.5859 18.3922L55.2919 18.412L55.3328 16.9581L54.6269 16.9382L54.5859 18.3922ZM55.3123 18.4123C56.4452 18.4123 57.4217 18.0806 58.1356 17.3318L57.0829 16.3281C56.7097 16.7195 56.1548 16.9578 55.3123 16.9578V18.4123ZM58.1385 17.3288C58.8303 16.5947 59.2277 15.4971 59.4226 14.1607L57.9833 13.9508C57.807 15.1599 57.4752 15.9118 57.08 16.3311L58.1385 17.3288ZM59.4228 14.1595L59.7609 11.8129L58.3212 11.6055L57.9831 13.9521L59.4228 14.1595ZM59.763 11.7971C59.8564 11.0299 59.9003 10.4182 59.8765 9.99765L58.4243 10.0799C58.4403 10.362 58.4113 10.8639 58.3191 11.6213L59.763 11.7971ZM59.8768 10.0024C59.8392 9.25026 59.6428 8.55896 59.1684 8.06396L58.1182 9.07036C58.2537 9.21173 58.3954 9.50149 58.424 10.0751L59.8768 10.0024ZM59.1684 8.06396C58.6911 7.56593 58.0328 7.35711 57.3153 7.33319L57.2668 8.78693C57.7425 8.80278 57.9857 8.93203 58.1182 9.07036L59.1684 8.06396ZM57.2982 7.33282L56.284 7.32288L56.2697 8.77735L57.2839 8.7873L57.2982 7.33282Z" fill="#040404" mask="url(#path-6-outside-3_855_123)"/>
<mask id="path-8-outside-4_855_123" maskUnits="userSpaceOnUse" x="23.7271" y="3.36401" width="37" height="17" fill="black">
<rect fill="white" x="23.7271" y="3.36401" width="37" height="17"/>
<path d="M33.4728 16.4009H29.6248L28.362 19.364H25.2597L32.1603 4.88674H34.7753L36.6745 19.364H33.7214L33.4728 16.4009ZM30.6688 13.9649H33.2739L32.8663 8.83418L30.6688 13.9649ZM43.3464 14.0742H41.8947L40.9799 19.364H38.1262L40.6319 4.88674L45.0069 4.89668C46.2995 4.93646 47.2905 5.33418 47.9799 6.08987C48.6693 6.84555 48.961 7.87632 48.8549 9.1822C48.6892 11.1642 47.7877 12.543 46.1503 13.3186L47.6021 19.2049V19.364H44.5396L43.3464 14.0742ZM42.3123 11.6382L43.8137 11.658C44.5031 11.6448 45.0467 11.373 45.4444 10.8427C45.8421 10.3058 46.0377 9.59649 46.031 8.71487C46.0045 7.84649 45.6234 7.38579 44.8876 7.33276L43.068 7.32282L42.3123 11.6382ZM49.1532 19.364L51.6589 4.88674L55.2285 4.89668C56.2824 4.9232 57.1707 5.19829 57.8932 5.72197C58.6224 6.24564 59.1428 6.97149 59.4543 7.89953C59.7725 8.82756 59.8587 9.86496 59.7128 11.0117L59.3947 13.1296C59.103 15.0785 58.397 16.6031 57.2768 17.7035C56.1631 18.8039 54.7611 19.3574 53.0708 19.364H49.1532ZM54.0949 7.32282L52.4245 16.9379L53.1305 16.9578C54.1182 16.9578 54.8838 16.6727 55.4273 16.1027C55.9709 15.5259 56.3355 14.6012 56.5211 13.3285L56.8592 10.9819C56.952 10.2196 56.9884 9.66278 56.9685 9.31146C56.9354 8.64858 56.7664 8.15805 56.4614 7.83987C56.1565 7.52168 55.7057 7.35265 55.1092 7.33276L54.0949 7.32282Z"/>
</mask>
<path d="M33.4728 16.4009H29.6248L28.362 19.364H25.2597L32.1603 4.88674H34.7753L36.6745 19.364H33.7214L33.4728 16.4009ZM30.6688 13.9649H33.2739L32.8663 8.83418L30.6688 13.9649ZM43.3464 14.0742H41.8947L40.9799 19.364H38.1262L40.6319 4.88674L45.0069 4.89668C46.2995 4.93646 47.2905 5.33418 47.9799 6.08987C48.6693 6.84555 48.961 7.87632 48.8549 9.1822C48.6892 11.1642 47.7877 12.543 46.1503 13.3186L47.6021 19.2049V19.364H44.5396L43.3464 14.0742ZM42.3123 11.6382L43.8137 11.658C44.5031 11.6448 45.0467 11.373 45.4444 10.8427C45.8421 10.3058 46.0377 9.59649 46.031 8.71487C46.0045 7.84649 45.6234 7.38579 44.8876 7.33276L43.068 7.32282L42.3123 11.6382ZM49.1532 19.364L51.6589 4.88674L55.2285 4.89668C56.2824 4.9232 57.1707 5.19829 57.8932 5.72197C58.6224 6.24564 59.1428 6.97149 59.4543 7.89953C59.7725 8.82756 59.8587 9.86496 59.7128 11.0117L59.3947 13.1296C59.103 15.0785 58.397 16.6031 57.2768 17.7035C56.1631 18.8039 54.7611 19.3574 53.0708 19.364H49.1532ZM54.0949 7.32282L52.4245 16.9379L53.1305 16.9578C54.1182 16.9578 54.8838 16.6727 55.4273 16.1027C55.9709 15.5259 56.3355 14.6012 56.5211 13.3285L56.8592 10.9819C56.952 10.2196 56.9884 9.66278 56.9685 9.31146C56.9354 8.64858 56.7664 8.15805 56.4614 7.83987C56.1565 7.52168 55.7057 7.35265 55.1092 7.33276L54.0949 7.32282Z" fill="white"/>
<path d="M33.4728 16.4009L34.1975 16.3401L34.1416 15.6737H33.4728V16.4009ZM29.6248 16.4009V15.6737H29.1442L28.9557 16.1158L29.6248 16.4009ZM28.362 19.364V20.0913H28.8426L29.031 19.6491L28.362 19.364ZM25.2597 19.364L24.6032 19.0511L24.1074 20.0913H25.2597V19.364ZM32.1603 4.88674V4.15947H31.7013L31.5038 4.57382L32.1603 4.88674ZM34.7753 4.88674L35.4964 4.79215L35.4134 4.15947H34.7753V4.88674ZM36.6745 19.364V20.0913H37.5034L37.3956 19.2694L36.6745 19.364ZM33.7214 19.364L32.9966 19.4248L33.0526 20.0913H33.7214V19.364ZM30.6688 13.9649L30.0003 13.6785L29.5662 14.6921H30.6688V13.9649ZM33.2739 13.9649V14.6921H34.0613L33.9989 13.9073L33.2739 13.9649ZM32.8663 8.83418L33.5912 8.77658L32.1977 8.54785L32.8663 8.83418ZM33.4728 15.6737H29.6248V17.1282H33.4728V15.6737ZM28.9557 16.1158L27.6929 19.0789L29.031 19.6491L30.2938 16.6861L28.9557 16.1158ZM28.362 18.6367H25.2597V20.0913H28.362V18.6367ZM25.9162 19.6769L32.8168 5.19967L31.5038 4.57382L24.6032 19.0511L25.9162 19.6769ZM32.1603 5.61401H34.7753V4.15947H32.1603V5.61401ZM34.0543 4.98134L35.9534 19.4586L37.3956 19.2694L35.4964 4.79215L34.0543 4.98134ZM36.6745 18.6367H33.7214V20.0913H36.6745V18.6367ZM34.4461 19.3032L34.1975 16.3401L32.7481 16.4617L32.9966 19.4248L34.4461 19.3032ZM30.6688 14.6921H33.2739V13.2376H30.6688V14.6921ZM33.9989 13.9073L33.5912 8.77658L32.1413 8.89179L32.5489 14.0225L33.9989 13.9073ZM32.1977 8.54785L30.0003 13.6785L31.3373 14.2512L33.5348 9.12051L32.1977 8.54785ZM43.3464 14.0742L44.0558 13.9142L43.9279 13.347H43.3464V14.0742ZM41.8947 14.0742V13.347H41.2824L41.178 13.9503L41.8947 14.0742ZM40.9799 19.364V20.0913H41.5922L41.6965 19.4879L40.9799 19.364ZM38.1262 19.364L37.4096 19.24L37.2622 20.0913H38.1262V19.364ZM40.6319 4.88674L40.6335 4.15947L40.0199 4.15808L39.9153 4.76271L40.6319 4.88674ZM45.0069 4.89668L45.0292 4.16976L45.0189 4.16944L45.0085 4.16941L45.0069 4.89668ZM47.9799 6.08987L48.5172 5.59971L47.9799 6.08987ZM48.8549 9.1822L49.5796 9.24279L49.5798 9.24107L48.8549 9.1822ZM46.1503 13.3186L45.839 12.6613L45.3019 12.9157L45.4442 13.4927L46.1503 13.3186ZM47.6021 19.2049H48.3293V19.1166L48.3082 19.0308L47.6021 19.2049ZM47.6021 19.364V20.0913H48.3293V19.364H47.6021ZM44.5396 19.364L43.8301 19.524L43.9581 20.0913H44.5396V19.364ZM42.3123 11.6382L41.5959 11.5127L41.4486 12.3541L42.3026 12.3654L42.3123 11.6382ZM43.8137 11.658L43.8041 12.3853L43.8159 12.3854L43.8277 12.3852L43.8137 11.658ZM45.4444 10.8427L46.0262 11.2791L46.0288 11.2756L45.4444 10.8427ZM46.031 8.71487L46.7583 8.7094L46.7582 8.70103L46.758 8.69267L46.031 8.71487ZM44.8876 7.33276L44.9398 6.60737L44.9157 6.60563L44.8915 6.6055L44.8876 7.33276ZM43.068 7.32282L43.0719 6.59556L42.4576 6.5922L42.3516 7.19737L43.068 7.32282ZM43.3464 13.347H41.8947V14.8015H43.3464V13.347ZM41.178 13.9503L40.2633 19.2401L41.6965 19.4879L42.6113 14.1982L41.178 13.9503ZM40.9799 18.6367H38.1262V20.0913H40.9799V18.6367ZM38.8428 19.488L41.3485 5.01077L39.9153 4.76271L37.4096 19.24L38.8428 19.488ZM40.6302 5.61401L45.0052 5.62396L45.0085 4.16941L40.6335 4.15947L40.6302 5.61401ZM44.9845 5.62361C46.1355 5.65903 46.9187 6.00577 47.4426 6.58002L48.5172 5.59971C47.6623 4.6626 46.4635 4.21389 45.0292 4.16976L44.9845 5.62361ZM47.4426 6.58002C47.9602 7.14743 48.2246 7.95872 48.13 9.12332L49.5798 9.24107C49.6973 7.79393 49.3783 6.54367 48.5172 5.59971L47.4426 6.58002ZM48.1301 9.1216C47.9835 10.8759 47.2155 12.0093 45.839 12.6613L46.4617 13.9758C48.3598 13.0767 49.3949 11.4525 49.5796 9.24279L48.1301 9.1216ZM45.4442 13.4927L46.8959 19.3791L48.3082 19.0308L46.8565 13.1444L45.4442 13.4927ZM46.8748 19.2049V19.364H48.3293V19.2049H46.8748ZM47.6021 18.6367H44.5396V20.0913H47.6021V18.6367ZM45.249 19.204L44.0558 13.9142L42.6369 14.2343L43.8301 19.524L45.249 19.204ZM42.3026 12.3654L43.8041 12.3853L43.8233 10.9308L42.3219 10.911L42.3026 12.3654ZM43.8277 12.3852C44.7306 12.3678 45.4879 11.9968 46.0262 11.2791L44.8626 10.4063C44.6054 10.7492 44.2756 10.9218 43.7997 10.9309L43.8277 12.3852ZM46.0288 11.2756C46.5465 10.5767 46.7657 9.69853 46.7583 8.7094L45.3038 8.72033C45.3096 9.49446 45.1377 10.0348 44.86 10.4098L46.0288 11.2756ZM46.758 8.69267C46.7419 8.16765 46.6167 7.65465 46.2856 7.25446C45.9401 6.83677 45.4563 6.64459 44.9398 6.60737L44.8353 8.05816C45.0546 8.07396 45.1293 8.13866 45.1649 8.18167C45.215 8.24217 45.2936 8.39371 45.3041 8.73706L46.758 8.69267ZM44.8915 6.6055L43.0719 6.59556L43.064 8.05008L44.8836 8.06003L44.8915 6.6055ZM42.3516 7.19737L41.5959 11.5127L43.0287 11.7636L43.7843 7.44827L42.3516 7.19737ZM49.1532 19.364L48.4366 19.24L48.2892 20.0913H49.1532V19.364ZM51.6589 4.88674L51.6609 4.15947L51.047 4.15776L50.9423 4.76271L51.6589 4.88674ZM55.2285 4.89668L55.2468 4.16964L55.2386 4.16944L55.2305 4.16941L55.2285 4.89668ZM57.8932 5.72197L57.4664 6.31085L57.469 6.31268L57.8932 5.72197ZM59.4543 7.89953L58.7649 8.13099L58.7664 8.1354L59.4543 7.89953ZM59.7128 11.0117L60.432 11.1198L60.4333 11.1117L60.4343 11.1035L59.7128 11.0117ZM59.3947 13.1296L58.6755 13.0216L58.6754 13.022L59.3947 13.1296ZM57.2768 17.7035L56.7671 17.1847L56.7656 17.1862L57.2768 17.7035ZM53.0708 19.364V20.0913L53.0737 20.0913L53.0708 19.364ZM54.0949 7.32282L54.1021 6.59558L53.4842 6.58953L53.3784 7.19833L54.0949 7.32282ZM52.4245 16.9379L51.708 16.8134L51.5641 17.6412L52.404 17.6649L52.4245 16.9379ZM53.1305 16.9578L53.11 17.6847L53.1202 17.685H53.1305V16.9578ZM55.4273 16.1026L55.9537 16.6045L55.9566 16.6015L55.4273 16.1026ZM56.5211 13.3285L57.2407 13.4335L57.2409 13.4322L56.5211 13.3285ZM56.8592 10.9819L57.579 11.0856L57.5801 11.0777L57.5811 11.0698L56.8592 10.9819ZM56.9685 9.31146L56.2421 9.34778L56.2424 9.35256L56.9685 9.31146ZM55.1092 7.33276L55.1334 6.6059L55.1248 6.60561L55.1163 6.60553L55.1092 7.33276ZM49.8698 19.488L52.3755 5.01077L50.9423 4.76271L48.4366 19.24L49.8698 19.488ZM51.6568 5.61401L55.2264 5.62395L55.2305 4.16941L51.6609 4.15947L51.6568 5.61401ZM55.2102 5.62373C56.1444 5.64723 56.8833 5.88821 57.4664 6.31084L58.32 5.1331C57.4581 4.50838 56.4205 4.19917 55.2468 4.16964L55.2102 5.62373ZM57.469 6.31268C58.063 6.73927 58.4972 7.33378 58.7649 8.13099L60.1438 7.66806C59.7883 6.60921 59.1818 5.75202 58.3175 5.13125L57.469 6.31268ZM58.7664 8.1354C59.0426 8.94104 59.1257 9.86399 58.9914 10.92L60.4343 11.1035C60.5917 9.86594 60.5024 8.71408 60.1423 7.66365L58.7664 8.1354ZM58.9936 10.9037L58.6755 13.0216L60.1139 13.2377L60.432 11.1198L58.9936 10.9037ZM58.6754 13.022C58.4011 14.8551 57.7487 16.2205 56.7671 17.1847L57.7864 18.2223C59.0454 16.9857 59.8049 15.302 60.1139 13.2373L58.6754 13.022ZM56.7656 17.1862C55.7988 18.1414 54.5846 18.6308 53.0679 18.6367L53.0737 20.0913C54.9377 20.084 56.5274 19.4663 57.7879 18.2208L56.7656 17.1862ZM53.0708 18.6367H49.1532V20.0913H53.0708V18.6367ZM53.3784 7.19833L51.708 16.8134L53.141 17.0624L54.8115 7.44731L53.3784 7.19833ZM52.404 17.6649L53.11 17.6847L53.1509 16.2308L52.445 16.2109L52.404 17.6649ZM53.1305 17.685C54.2633 17.685 55.2398 17.3533 55.9537 16.6045L54.901 15.6008C54.5278 15.9922 53.973 16.2305 53.1305 16.2305V17.685ZM55.9566 16.6015C56.6484 15.8674 57.0459 14.7698 57.2407 13.4335L55.8014 13.2236C55.6251 14.4326 55.2933 15.1845 54.8981 15.6038L55.9566 16.6015ZM57.2409 13.4322L57.579 11.0856L56.1393 10.8782L55.8012 13.2248L57.2409 13.4322ZM57.5811 11.0698C57.6745 10.3026 57.7184 9.6909 57.6946 9.27036L56.2424 9.35256C56.2584 9.63467 56.2294 10.1366 56.1372 10.894L57.5811 11.0698ZM57.6949 9.27514C57.6573 8.52296 57.4609 7.83166 56.9865 7.33666L55.9363 8.34307C56.0718 8.48443 56.2135 8.77419 56.2422 9.34778L57.6949 9.27514ZM56.9865 7.33666C56.5092 6.83864 55.8509 6.62981 55.1334 6.6059L55.0849 8.05963C55.5606 8.07549 55.8038 8.20473 55.9363 8.34307L56.9865 7.33666ZM55.1163 6.60553L54.1021 6.59558L54.0878 8.05006L55.102 8.06L55.1163 6.60553Z" fill="#040404" mask="url(#path-8-outside-4_855_123)"/>
<g clip-path="url(#clip0_855_123)">
<path d="M22.9481 3.64639L22.9481 3.64639L26.5749 5.74065L22.9481 3.64639ZM22.9481 3.64639C22.7937 3.55723 22.6185 3.51029 22.4402 3.51029C22.2619 3.51029 22.0867 3.55723 21.9323 3.64639L21.9323 3.64639M22.9481 3.64639L21.9323 3.64639M21.9323 3.64639L18.3054 5.7407L18.3053 5.74072M21.9323 3.64639L18.3053 5.74072M18.3053 5.74072C18.2278 5.78556 18.1565 5.84047 18.0933 5.90401L17.9933 6.00454M18.3053 5.74072L17.9933 6.00454M17.9933 6.00454L18.1161 6.0754M17.9933 6.00454L18.1161 6.0754M18.1161 6.0754L22.3857 8.53988L22.4402 8.57136M18.1161 6.0754L22.4402 8.57136M22.4402 8.57136L22.4947 8.53987M22.4402 8.57136L22.4947 8.53987M22.4947 8.53987L26.7643 6.07495L26.8872 6.00396M22.4947 8.53987L26.8872 6.00396M26.8872 6.00396L26.787 5.90343M26.8872 6.00396L26.787 5.90343M26.787 5.90343C26.7238 5.84009 26.6525 5.78537 26.575 5.7407L26.787 5.90343ZM22.9114 6.0526L22.9042 6.05507L22.8975 6.05849C22.7563 6.13047 22.6 6.16799 22.4414 6.16799C22.2839 6.16799 22.1285 6.13093 21.9879 6.05981C21.8694 5.99066 21.8334 5.91503 21.8329 5.86138C21.8324 5.80833 21.8664 5.73361 21.9832 5.6649C22.1244 5.59379 22.2802 5.55674 22.4383 5.55674C22.5974 5.55674 22.7542 5.59428 22.8961 5.66631L22.903 5.66983L22.9103 5.67233C22.95 5.68581 22.9845 5.71135 23.0089 5.74537C23.0333 5.7794 23.0465 5.82021 23.0467 5.8621C23.0468 5.90399 23.0338 5.94487 23.0095 5.97902C22.9853 6.01318 22.951 6.0389 22.9114 6.0526Z" fill="white" stroke="#040404" stroke-width="0.218182"/>
<path d="M17.9419 6.37085C17.9187 6.45148 17.9068 6.53494 17.9065 6.61884V10.807C17.9066 10.9661 17.9485 11.1223 18.0281 11.2601C18.1077 11.3978 18.2221 11.5122 18.3599 11.5918L21.9867 13.6856C22.0577 13.7266 22.134 13.7576 22.2134 13.7779V8.83623L17.9419 6.37085ZM18.9277 8.94141C18.8045 8.86162 18.7021 8.75375 18.6287 8.62667C18.5553 8.49959 18.5131 8.35691 18.5056 8.21037C18.5056 7.94243 18.696 7.83453 18.9306 7.96986C19.0532 8.04957 19.1551 8.15712 19.2282 8.28373C19.3013 8.41034 19.3434 8.55243 19.3511 8.69841C19.3505 8.96816 19.1609 9.07561 18.9277 8.94141ZM19.9466 10.7381C19.8235 10.6583 19.721 10.5503 19.6476 10.4232C19.5742 10.2961 19.5321 10.1534 19.5245 10.0068C19.5245 9.7391 19.7147 9.63097 19.9493 9.76653C20.072 9.84615 20.174 9.95367 20.2472 10.0803C20.3203 10.2069 20.3624 10.3491 20.3701 10.4951C20.3687 10.7646 20.1792 10.8725 19.9466 10.7381ZM20.9649 12.5345C20.8417 12.4547 20.7393 12.3469 20.6659 12.2198C20.5925 12.0927 20.5503 11.95 20.5428 11.8035C20.5428 11.5355 20.733 11.4276 20.9676 11.563C21.0902 11.6426 21.1922 11.7502 21.2653 11.8768C21.3385 12.0034 21.3806 12.1455 21.3883 12.2915C21.387 12.5611 21.1972 12.6692 20.9642 12.5345H20.9649Z" fill="white"/>
<path d="M26.9383 6.37085L22.6667 8.83691V13.7786C22.7462 13.7583 22.8224 13.7272 22.8934 13.6863L26.5203 11.5918C26.6582 11.5122 26.7726 11.3977 26.8522 11.2599C26.9318 11.1221 26.9737 10.9657 26.9737 10.8065V6.61884C26.9734 6.53494 26.9615 6.45148 26.9383 6.37085ZM24.0821 9.05543C24.3168 8.91942 24.5063 9.028 24.5069 9.29753C24.4994 9.4439 24.4572 9.58639 24.384 9.71331C24.3107 9.84023 24.2083 9.94796 24.0853 10.0277C23.8523 10.1623 23.6612 10.0551 23.6603 9.78738C23.6679 9.64071 23.7102 9.49792 23.7836 9.3707C23.857 9.24349 23.9594 9.13545 24.0826 9.05543H24.0821ZM24.0903 11.9719C23.8573 12.1063 23.6662 11.9993 23.6655 11.7314C23.6732 11.5849 23.7154 11.4423 23.7888 11.3152C23.8621 11.1881 23.9645 11.0802 24.0876 11.0004C24.3222 10.8643 24.5117 10.9729 24.5126 11.2424C24.5047 11.3887 24.4624 11.531 24.3891 11.6577C24.3158 11.7845 24.2136 11.8921 24.0908 11.9719H24.0903ZM25.775 8.07821C26.0096 7.9422 26.1991 8.05078 26.2 8.3203C26.1923 8.46658 26.15 8.60895 26.0766 8.73574C26.0032 8.86253 25.9009 8.97014 25.7779 9.04976C25.5447 9.18441 25.3552 9.07629 25.3545 8.80858C25.3619 8.66228 25.4039 8.51983 25.477 8.39288C25.5501 8.26593 25.6522 8.1581 25.775 8.07821ZM25.7834 10.9947C25.5504 11.1293 25.3609 11.0212 25.3599 10.7535C25.3674 10.6072 25.4093 10.4647 25.4825 10.3377C25.5556 10.2108 25.6578 10.103 25.7807 10.0231C26.0153 9.88712 26.2048 9.9957 26.2055 10.2652C26.1978 10.4115 26.1555 10.5539 26.0821 10.6807C26.0088 10.8075 25.9064 10.9151 25.7834 10.9947Z" fill="white"/>
</g>
<mask id="path-13-outside-5_855_123" maskUnits="userSpaceOnUse" x="3.18188" y="18.636" width="51" height="17" fill="black">
<rect fill="white" x="3.18188" y="18.636" width="51" height="17"/>
<path d="M13.5129 32.9954C12.9759 33.592 12.2766 34.0527 11.4148 34.3775C10.5531 34.6956 9.62838 34.8481 8.64069 34.8348C7.77232 34.8282 7.01995 34.6393 6.38359 34.2681C5.74723 33.8902 5.25338 33.3467 4.90206 32.6374C4.55736 31.9215 4.37175 31.0995 4.34524 30.1715C4.32535 29.6677 4.34855 29.154 4.41484 28.6303L4.77279 26.234C5.07772 24.2188 5.73397 22.6611 6.74154 21.5607C7.74912 20.4603 9.06162 19.9267 10.679 19.9599C12.0578 19.9864 13.0952 20.404 13.7913 21.2127C14.4939 22.0148 14.8519 23.2046 14.8651 24.7823L12.091 24.7724L12.0611 23.9769C11.975 22.9428 11.4679 22.4092 10.5398 22.376C9.16768 22.323 8.26617 23.2278 7.83529 25.0905L7.68615 25.8363L7.28842 28.6303C7.20225 29.2667 7.1691 29.8102 7.18899 30.261C7.22213 31.0034 7.38785 31.5437 7.68615 31.8817C7.99107 32.2132 8.41863 32.3855 8.96882 32.3988C9.48586 32.412 10.0626 32.243 10.6989 31.8917L11.206 29.2269H9.20745L9.59524 27.0195H14.4276L13.5129 32.9954ZM22.4617 31.6729H18.6137L17.3509 34.636H14.2486L21.1492 20.1587H23.7643L25.6634 34.636H22.7103L22.4617 31.6729ZM19.6577 29.2368H22.2629L21.8552 24.1062L19.6577 29.2368ZM33.2898 20.1587L34.135 30.5692L38.5796 20.1587H42.3381L39.8225 34.636H36.9589L37.6549 30.6289L38.9077 24.9116L34.4731 34.636H32.5342L31.4404 24.5834L30.6151 30.8178L29.9589 34.636H27.1052L29.6109 20.1587H33.2898ZM50.5313 28.3718H46.1165L45.4503 32.2099H50.6805L50.2529 34.636H42.179L44.6847 20.1587H52.7486L52.3211 22.5948H47.1208L46.5242 26.0152H50.9489L50.5313 28.3718Z"/>
</mask>
<path d="M13.5129 32.9954C12.9759 33.592 12.2766 34.0527 11.4148 34.3775C10.5531 34.6956 9.62838 34.8481 8.64069 34.8348C7.77232 34.8282 7.01995 34.6393 6.38359 34.2681C5.74723 33.8902 5.25338 33.3467 4.90206 32.6374C4.55736 31.9215 4.37175 31.0995 4.34524 30.1715C4.32535 29.6677 4.34855 29.154 4.41484 28.6303L4.77279 26.234C5.07772 24.2188 5.73397 22.6611 6.74154 21.5607C7.74912 20.4603 9.06162 19.9267 10.679 19.9599C12.0578 19.9864 13.0952 20.404 13.7913 21.2127C14.4939 22.0148 14.8519 23.2046 14.8651 24.7823L12.091 24.7724L12.0611 23.9769C11.975 22.9428 11.4679 22.4092 10.5398 22.376C9.16768 22.323 8.26617 23.2278 7.83529 25.0905L7.68615 25.8363L7.28842 28.6303C7.20225 29.2667 7.1691 29.8102 7.18899 30.261C7.22213 31.0034 7.38785 31.5437 7.68615 31.8817C7.99107 32.2132 8.41863 32.3855 8.96882 32.3988C9.48586 32.412 10.0626 32.243 10.6989 31.8917L11.206 29.2269H9.20745L9.59524 27.0195H14.4276L13.5129 32.9954ZM22.4617 31.6729H18.6137L17.3509 34.636H14.2486L21.1492 20.1587H23.7643L25.6634 34.636H22.7103L22.4617 31.6729ZM19.6577 29.2368H22.2629L21.8552 24.1062L19.6577 29.2368ZM33.2898 20.1587L34.135 30.5692L38.5796 20.1587H42.3381L39.8225 34.636H36.9589L37.6549 30.6289L38.9077 24.9116L34.4731 34.636H32.5342L31.4404 24.5834L30.6151 30.8178L29.9589 34.636H27.1052L29.6109 20.1587H33.2898ZM50.5313 28.3718H46.1165L45.4503 32.2099H50.6805L50.2529 34.636H42.179L44.6847 20.1587H52.7486L52.3211 22.5948H47.1208L46.5242 26.0152H50.9489L50.5313 28.3718Z" fill="#040404"/>
<path d="M13.5129 32.9954L14.0534 33.4819L14.1989 33.3203L14.2317 33.1054L13.5129 32.9954ZM11.4148 34.3775L11.6668 35.0597L11.6713 35.058L11.4148 34.3775ZM8.64069 34.8349L8.65045 34.1076L8.64624 34.1076L8.64069 34.8349ZM6.38359 34.2681L6.01228 34.8935L6.01714 34.8963L6.38359 34.2681ZM4.90206 32.6374L4.24674 32.9529L4.25035 32.9602L4.90206 32.6374ZM4.34524 30.1715L5.07226 30.1507L5.07194 30.1428L4.34524 30.1715ZM4.41484 28.6303L3.69555 28.5229L3.69435 28.5309L3.69332 28.539L4.41484 28.6303ZM4.77279 26.234L4.05371 26.1252L4.0535 26.1266L4.77279 26.234ZM10.679 19.9599L10.6641 20.687L10.6651 20.687L10.679 19.9599ZM13.7913 21.2127L13.24 21.6871L13.2442 21.6919L13.7913 21.2127ZM14.8651 24.7823L14.8625 25.5096L15.5986 25.5122L15.5924 24.7762L14.8651 24.7823ZM12.091 24.7724L11.3642 24.7996L11.3904 25.4971L12.0884 25.4996L12.091 24.7724ZM12.0611 23.9769L12.7879 23.9496L12.7873 23.933L12.7859 23.9165L12.0611 23.9769ZM10.5398 22.376L10.5118 23.1028L10.5139 23.1029L10.5398 22.376ZM7.83529 25.0905L7.12673 24.9266L7.12428 24.9372L7.12214 24.9479L7.83529 25.0905ZM7.68615 25.8363L6.973 25.6936L6.969 25.7136L6.96613 25.7338L7.68615 25.8363ZM7.28842 28.6303L6.56839 28.5278L6.56772 28.5327L7.28842 28.6303ZM7.18899 30.261L6.46242 30.293L6.46244 30.2934L7.18899 30.261ZM7.68615 31.8817L7.14081 32.3629L7.14581 32.3686L7.15092 32.3741L7.68615 31.8817ZM8.96882 32.3988L8.98746 31.6717L8.98634 31.6717L8.96882 32.3988ZM10.6989 31.8917L11.0504 32.5284L11.3495 32.3632L11.4134 32.0276L10.6989 31.8917ZM11.206 29.2269L11.9205 29.3629L12.0848 28.4996H11.206V29.2269ZM9.20745 29.2269L8.49115 29.1011L8.34128 29.9542H9.20745V29.2269ZM9.59524 27.0195V26.2922H8.98459L8.87893 26.8937L9.59524 27.0195ZM14.4276 27.0195L15.1465 27.1296L15.2747 26.2922H14.4276V27.0195ZM12.9723 32.5088C12.5239 33.007 11.9274 33.4071 11.1583 33.6969L11.6713 35.058C12.6258 34.6982 13.4279 34.1769 14.0534 33.4819L12.9723 32.5088ZM11.1629 33.6952C10.391 33.9802 9.55566 34.1198 8.65045 34.1076L8.63093 35.5621C9.7011 35.5764 10.7152 35.4111 11.6667 35.0597L11.1629 33.6952ZM8.64624 34.1076C7.88194 34.1018 7.25865 33.9366 6.75004 33.6399L6.01714 34.8963C6.78125 35.342 7.6627 35.5547 8.63514 35.5621L8.64624 34.1076ZM6.75489 33.6427C6.24773 33.3416 5.84731 32.9072 5.55376 32.3146L4.25035 32.9602C4.65945 33.7861 5.24673 34.4389 6.01229 34.8934L6.75489 33.6427ZM5.55733 32.3219C5.26383 31.7123 5.0963 30.9936 5.07221 30.1507L3.61826 30.1923C3.64721 31.2054 3.85089 32.1307 4.24678 32.9529L5.55733 32.3219ZM5.07194 30.1428C5.05371 29.6809 5.07487 29.2074 5.13636 28.7216L3.69332 28.539C3.62223 29.1006 3.59699 29.6545 3.61853 30.2002L5.07194 30.1428ZM5.13413 28.7378L5.49209 26.3414L4.0535 26.1266L3.69555 28.5229L5.13413 28.7378ZM5.49188 26.3428C5.78289 24.4196 6.39758 23.0133 7.27792 22.0518L6.20516 21.0696C5.07036 22.3089 4.37254 24.0181 4.05371 26.1252L5.49188 26.3428ZM7.27792 22.0518C8.13134 21.1198 9.236 20.6577 10.6641 20.687L10.6939 19.2327C8.88724 19.1957 7.3669 19.8008 6.20516 21.0696L7.27792 22.0518ZM10.6651 20.687C11.9013 20.7108 12.7159 21.0782 13.24 21.6871L14.3425 20.7383C13.4745 19.7298 12.2144 19.262 10.693 19.2327L10.6651 20.687ZM13.2442 21.6919C13.788 22.3126 14.1254 23.3037 14.1379 24.7884L15.5924 24.7762C15.5783 23.1056 15.1999 21.7169 14.3383 20.7335L13.2442 21.6919ZM14.8677 24.055L12.0936 24.0451L12.0884 25.4996L14.8625 25.5096L14.8677 24.055ZM12.8177 24.7451L12.7879 23.9496L11.3344 24.0041L11.3642 24.7996L12.8177 24.7451ZM12.7859 23.9165C12.7346 23.3007 12.5497 22.7277 12.1434 22.3001C11.7267 21.8616 11.1678 21.6707 10.5658 21.6492L10.5139 23.1029C10.8399 23.1145 10.9986 23.207 11.089 23.3021C11.1897 23.4081 11.3015 23.619 11.3364 24.0373L12.7859 23.9165ZM10.5679 21.6493C9.69597 21.6156 8.92512 21.8936 8.31938 22.5016C7.73647 23.0866 7.35858 23.9243 7.12673 24.9266L8.54386 25.2544C8.74288 24.3941 9.03118 23.848 9.34979 23.5282C9.64556 23.2313 10.0116 23.0834 10.5118 23.1028L10.5679 21.6493ZM7.12214 24.9479L6.973 25.6936L8.3993 25.9789L8.54844 25.2332L7.12214 24.9479ZM6.96613 25.7338L6.56841 28.5278L8.00843 28.7328L8.40616 25.9388L6.96613 25.7338ZM6.56772 28.5327C6.47796 29.1956 6.44001 29.7851 6.46242 30.293L7.91555 30.2289C7.89819 29.8354 7.92653 29.3377 8.00911 28.7279L6.56772 28.5327ZM6.46244 30.2934C6.49856 31.1025 6.68126 31.8421 7.14081 32.3629L8.23148 31.4005C8.09444 31.2452 7.9457 30.9043 7.91554 30.2286L6.46244 30.2934ZM7.15092 32.3741C7.61816 32.882 8.25071 33.1089 8.9513 33.1258L8.98634 31.6717C8.58654 31.6621 8.36399 31.5443 8.22137 31.3893L7.15092 32.3741ZM8.95018 33.1258C9.63848 33.1435 10.3445 32.9181 11.0504 32.5284L10.3474 31.255C9.78064 31.5679 9.33325 31.6806 8.98746 31.6717L8.95018 33.1258ZM11.4134 32.0276L11.9205 29.3629L10.4916 29.0909L9.98448 31.7557L11.4134 32.0276ZM11.206 28.4996H9.20745V29.9542H11.206V28.4996ZM9.92376 29.3527L10.3115 27.1453L8.87893 26.8937L8.49115 29.1011L9.92376 29.3527ZM9.59524 27.7468H14.4276V26.2922H9.59524V27.7468ZM13.7087 26.9095L12.794 32.8853L14.2317 33.1054L15.1465 27.1296L13.7087 26.9095ZM22.4617 31.6729L23.1864 31.6121L23.1305 30.9456H22.4617V31.6729ZM18.6137 31.6729V30.9456H18.1331L17.9447 31.3878L18.6137 31.6729ZM17.3509 34.636V35.3633H17.8315L18.02 34.9211L17.3509 34.636ZM14.2486 34.636L13.5921 34.3231L13.0963 35.3633H14.2486V34.636ZM21.1492 20.1587V19.4314H20.6902L20.4927 19.8458L21.1492 20.1587ZM23.7643 20.1587L24.4854 20.0641L24.4024 19.4314H23.7643V20.1587ZM25.6634 34.636V35.3633H26.4923L26.3845 34.5414L25.6634 34.636ZM22.7103 34.636L21.9856 34.6968L22.0415 35.3633H22.7103V34.636ZM19.6577 29.2368L18.9892 28.9505L18.5551 29.9641H19.6577V29.2368ZM22.2629 29.2368V29.9641H23.0502L22.9878 29.1792L22.2629 29.2368ZM21.8552 24.1062L22.5802 24.0486L21.1866 23.8198L21.8552 24.1062ZM22.4617 30.9456H18.6137V32.4002H22.4617V30.9456ZM17.9447 31.3878L16.6819 34.3509L18.02 34.9211L19.2828 31.958L17.9447 31.3878ZM17.3509 33.9087H14.2486V35.3633H17.3509V33.9087ZM14.9052 34.9489L21.8057 20.4716L20.4927 19.8458L13.5921 34.3231L14.9052 34.9489ZM21.1492 20.886H23.7643V19.4314H21.1492V20.886ZM23.0432 20.2533L24.9423 34.7306L26.3845 34.5414L24.4854 20.0641L23.0432 20.2533ZM25.6634 33.9087H22.7103V35.3633H25.6634V33.9087ZM23.435 34.5752L23.1864 31.6121L21.737 31.7337L21.9856 34.6968L23.435 34.5752ZM19.6577 29.9641H22.2629V28.5096H19.6577V29.9641ZM22.9878 29.1792L22.5802 24.0486L21.1302 24.1638L21.5379 29.2944L22.9878 29.1792ZM21.1866 23.8198L18.9892 28.9505L20.3263 29.5232L22.5237 24.3925L21.1866 23.8198ZM33.2898 20.1587L34.0147 20.0999L33.9605 19.4314H33.2898V20.1587ZM34.135 30.5692L33.4101 30.6281L34.8039 30.8548L34.135 30.5692ZM38.5796 20.1587V19.4314H38.0993L37.9107 19.8732L38.5796 20.1587ZM42.3381 20.1587L43.0547 20.2832L43.2027 19.4314H42.3381V20.1587ZM39.8225 34.636V35.3633H40.4343L40.539 34.7605L39.8225 34.636ZM36.9589 34.636L36.2423 34.5115L36.0944 35.3633H36.9589V34.636ZM37.6549 30.6289L36.9445 30.4732L36.9411 30.4887L36.9384 30.5044L37.6549 30.6289ZM38.9077 24.9116L39.6182 25.0672L38.246 24.6098L38.9077 24.9116ZM34.4731 34.636V35.3633H34.9407L35.1348 34.9377L34.4731 34.636ZM32.5342 34.636L31.8112 34.7147L31.8817 35.3633H32.5342V34.636ZM31.4404 24.5834L32.1634 24.5048L30.7194 24.488L31.4404 24.5834ZM30.6151 30.8178L31.3319 30.941L31.3343 30.9272L31.3361 30.9132L30.6151 30.8178ZM29.9589 34.636V35.3633H30.5718L30.6756 34.7592L29.9589 34.636ZM27.1052 34.636L26.3886 34.512L26.2412 35.3633H27.1052V34.636ZM29.6109 20.1587V19.4314H28.9987L28.8942 20.0347L29.6109 20.1587ZM32.565 20.2176L33.4101 30.6281L34.8599 30.5104L34.0147 20.0999L32.565 20.2176ZM34.8039 30.8548L39.2485 20.4443L37.9107 19.8732L33.4661 30.2837L34.8039 30.8548ZM38.5796 20.886H42.3381V19.4314H38.5796V20.886ZM41.6216 20.0342L39.106 34.5115L40.539 34.7605L43.0547 20.2832L41.6216 20.0342ZM39.8225 33.9087H36.9589V35.3633H39.8225V33.9087ZM37.6754 34.7604L38.3714 30.7533L36.9384 30.5044L36.2423 34.5115L37.6754 34.7604ZM38.3653 30.7846L39.6182 25.0672L38.1973 24.7559L36.9445 30.4732L38.3653 30.7846ZM38.246 24.6098L33.8114 34.3342L35.1348 34.9377L39.5695 25.2133L38.246 24.6098ZM34.4731 33.9087H32.5342V35.3633H34.4731V33.9087ZM33.2572 34.5573L32.1634 24.5048L30.7174 24.6621L31.8112 34.7147L33.2572 34.5573ZM30.7194 24.488L29.8941 30.7224L31.3361 30.9132L32.1614 24.6789L30.7194 24.488ZM29.8984 30.6946L29.2421 34.5128L30.6756 34.7592L31.3319 30.941L29.8984 30.6946ZM29.9589 33.9087H27.1052V35.3633H29.9589V33.9087ZM27.8218 34.76L30.3275 20.2827L28.8942 20.0347L26.3886 34.512L27.8218 34.76ZM29.6109 20.886H33.2898V19.4314H29.6109V20.886ZM50.5313 28.3718V29.0991H51.141L51.2474 28.4987L50.5313 28.3718ZM46.1165 28.3718V27.6445H45.5046L45.4 28.2474L46.1165 28.3718ZM45.4503 32.2099L44.7338 32.0855L44.586 32.9371H45.4503V32.2099ZM50.6805 32.2099L51.3967 32.3361L51.5471 31.4826H50.6805V32.2099ZM50.2529 34.636V35.3633H50.8632L50.9691 34.7622L50.2529 34.636ZM42.179 34.636L41.4624 34.512L41.3151 35.3633H42.179V34.636ZM44.6847 20.1587V19.4314H44.0725L43.9681 20.0347L44.6847 20.1587ZM52.7486 20.1587L53.465 20.2844L53.6147 19.4314H52.7486V20.1587ZM52.3211 22.5948V23.3221H52.9318L53.0374 22.7205L52.3211 22.5948ZM47.1208 22.5948V21.8675H46.5094L46.4043 22.4698L47.1208 22.5948ZM46.5242 26.0152L45.8078 25.8903L45.6591 26.7425H46.5242V26.0152ZM50.9489 26.0152L51.665 26.1422L51.8164 25.288H50.9489V26.0152ZM50.5313 27.6445H46.1165V29.0991H50.5313V27.6445ZM45.4 28.2474L44.7338 32.0855L46.1669 32.3342L46.8331 28.4962L45.4 28.2474ZM45.4503 32.9371H50.6805V31.4826H45.4503V32.9371ZM49.9642 32.0836L49.5367 34.5098L50.9691 34.7622L51.3967 32.3361L49.9642 32.0836ZM50.2529 33.9087H42.179V35.3633H50.2529V33.9087ZM42.8957 34.76L45.4013 20.2827L43.9681 20.0347L41.4624 34.512L42.8957 34.76ZM44.6847 20.886H52.7486V19.4314H44.6847V20.886ZM52.0323 20.033L51.6048 22.4691L53.0374 22.7205L53.465 20.2844L52.0323 20.033ZM52.3211 21.8675H47.1208V23.3221H52.3211V21.8675ZM46.4043 22.4698L45.8078 25.8903L47.2407 26.1402L47.8373 22.7198L46.4043 22.4698ZM46.5242 26.7425H50.9489V25.288H46.5242V26.7425ZM50.2328 25.8883L49.8152 28.2449L51.2474 28.4987L51.665 26.1422L50.2328 25.8883Z" fill="#040404" mask="url(#path-13-outside-5_855_123)"/>
<mask id="path-15-outside-6_855_123" maskUnits="userSpaceOnUse" x="0" y="18.636" width="61" height="17" fill="black">
<rect fill="white" y="18.636" width="61" height="17"/>
<path d="M10.4418 32.9954C9.90483 33.592 9.20549 34.0527 8.34375 34.3775C7.48201 34.6956 6.55729 34.8481 5.5696 34.8348C4.70123 34.8282 3.94886 34.6393 3.3125 34.2681C2.67614 33.8902 2.18229 33.3467 1.83097 32.6374C1.48627 31.9215 1.30066 31.0995 1.27415 30.1715C1.25426 29.6677 1.27746 29.154 1.34375 28.6303L1.70171 26.234C2.00663 24.2188 2.66288 22.6611 3.67046 21.5607C4.67803 20.4603 5.99053 19.9267 7.60796 19.9599C8.98674 19.9864 10.0241 20.404 10.7202 21.2127C11.4228 22.0148 11.7808 23.2046 11.794 24.7823L9.01989 24.7724L8.99006 23.9769C8.90388 22.9428 8.39678 22.4092 7.46875 22.376C6.09659 22.323 5.19508 23.2278 4.76421 25.0905L4.61506 25.8363L4.21733 28.6303C4.13116 29.2667 4.09801 29.8102 4.1179 30.261C4.15104 31.0034 4.31676 31.5437 4.61506 31.8817C4.91998 32.2132 5.34754 32.3855 5.89773 32.3988C6.41477 32.412 6.99148 32.243 7.62784 31.8917L8.13494 29.2269H6.13636L6.52415 27.0195H11.3565L10.4418 32.9954ZM19.3906 31.6729H15.5426L14.2798 34.636H11.1776L18.0781 20.1587H20.6932L22.5923 34.636H19.6392L19.3906 31.6729ZM16.5866 29.2368H19.1918L18.7841 24.1062L16.5866 29.2368ZM30.2188 20.1587L31.0639 30.5692L35.5085 20.1587H39.267L36.7514 34.636H33.8878L34.5838 30.6289L35.8366 24.9116L31.402 34.636H29.4631L28.3693 24.5834L27.544 30.8178L26.8878 34.636H24.0341L26.5398 20.1587H30.2188ZM47.4602 28.3718H43.0455L42.3793 32.2099H47.6094L47.1818 34.636H39.108L41.6136 20.1587H49.6776L49.25 22.5948H44.0497L43.4531 26.0152H47.8778L47.4602 28.3718ZM55.5838 30.7581C55.6501 30.2676 55.5772 29.8599 55.3651 29.5351C55.1596 29.2037 54.7254 28.8822 54.0625 28.5706C53.4062 28.2525 52.8561 27.9243 52.4119 27.5863C51.1989 26.6649 50.642 25.5015 50.7415 24.0962C50.8011 23.2875 51.053 22.5683 51.4972 21.9385C51.9479 21.3022 52.5478 20.8083 53.2969 20.457C54.0459 20.1057 54.848 19.94 55.7031 19.9599C56.9427 19.9864 57.9105 20.4172 58.6065 21.2525C59.3092 22.0811 59.634 23.145 59.581 24.4442L56.7372 24.4343C56.8101 23.0754 56.3759 22.386 55.4347 22.3661C54.9508 22.3528 54.5331 22.5119 54.1818 22.8434C53.8371 23.1682 53.6283 23.5891 53.5554 24.1062C53.456 24.8817 53.9929 25.5446 55.1662 26.0948C56.3395 26.645 57.1813 27.2648 57.6918 27.9542C58.2618 28.7165 58.5038 29.6445 58.4176 30.7383C58.3182 31.9977 57.821 33.0053 56.9261 33.761C56.0312 34.51 54.9143 34.8713 53.5753 34.8448C52.2296 34.8183 51.1657 34.3609 50.3835 33.4726C49.6013 32.5844 49.2434 31.4475 49.3097 30.0621L52.1733 30.0721C52.1203 30.9272 52.2296 31.5403 52.5014 31.9116C52.7798 32.2761 53.214 32.4584 53.804 32.4584C54.321 32.4518 54.7287 32.2927 55.027 31.9812C55.3253 31.663 55.5109 31.2553 55.5838 30.7581Z"/>
</mask>
<path d="M10.4418 32.9954C9.90483 33.592 9.20549 34.0527 8.34375 34.3775C7.48201 34.6956 6.55729 34.8481 5.5696 34.8348C4.70123 34.8282 3.94886 34.6393 3.3125 34.2681C2.67614 33.8902 2.18229 33.3467 1.83097 32.6374C1.48627 31.9215 1.30066 31.0995 1.27415 30.1715C1.25426 29.6677 1.27746 29.154 1.34375 28.6303L1.70171 26.234C2.00663 24.2188 2.66288 22.6611 3.67046 21.5607C4.67803 20.4603 5.99053 19.9267 7.60796 19.9599C8.98674 19.9864 10.0241 20.404 10.7202 21.2127C11.4228 22.0148 11.7808 23.2046 11.794 24.7823L9.01989 24.7724L8.99006 23.9769C8.90388 22.9428 8.39678 22.4092 7.46875 22.376C6.09659 22.323 5.19508 23.2278 4.76421 25.0905L4.61506 25.8363L4.21733 28.6303C4.13116 29.2667 4.09801 29.8102 4.1179 30.261C4.15104 31.0034 4.31676 31.5437 4.61506 31.8817C4.91998 32.2132 5.34754 32.3855 5.89773 32.3988C6.41477 32.412 6.99148 32.243 7.62784 31.8917L8.13494 29.2269H6.13636L6.52415 27.0195H11.3565L10.4418 32.9954ZM19.3906 31.6729H15.5426L14.2798 34.636H11.1776L18.0781 20.1587H20.6932L22.5923 34.636H19.6392L19.3906 31.6729ZM16.5866 29.2368H19.1918L18.7841 24.1062L16.5866 29.2368ZM30.2188 20.1587L31.0639 30.5692L35.5085 20.1587H39.267L36.7514 34.636H33.8878L34.5838 30.6289L35.8366 24.9116L31.402 34.636H29.4631L28.3693 24.5834L27.544 30.8178L26.8878 34.636H24.0341L26.5398 20.1587H30.2188ZM47.4602 28.3718H43.0455L42.3793 32.2099H47.6094L47.1818 34.636H39.108L41.6136 20.1587H49.6776L49.25 22.5948H44.0497L43.4531 26.0152H47.8778L47.4602 28.3718ZM55.5838 30.7581C55.6501 30.2676 55.5772 29.8599 55.3651 29.5351C55.1596 29.2037 54.7254 28.8822 54.0625 28.5706C53.4062 28.2525 52.8561 27.9243 52.4119 27.5863C51.1989 26.6649 50.642 25.5015 50.7415 24.0962C50.8011 23.2875 51.053 22.5683 51.4972 21.9385C51.9479 21.3022 52.5478 20.8083 53.2969 20.457C54.0459 20.1057 54.848 19.94 55.7031 19.9599C56.9427 19.9864 57.9105 20.4172 58.6065 21.2525C59.3092 22.0811 59.634 23.145 59.581 24.4442L56.7372 24.4343C56.8101 23.0754 56.3759 22.386 55.4347 22.3661C54.9508 22.3528 54.5331 22.5119 54.1818 22.8434C53.8371 23.1682 53.6283 23.5891 53.5554 24.1062C53.456 24.8817 53.9929 25.5446 55.1662 26.0948C56.3395 26.645 57.1813 27.2648 57.6918 27.9542C58.2618 28.7165 58.5038 29.6445 58.4176 30.7383C58.3182 31.9977 57.821 33.0053 56.9261 33.761C56.0312 34.51 54.9143 34.8713 53.5753 34.8448C52.2296 34.8183 51.1657 34.3609 50.3835 33.4726C49.6013 32.5844 49.2434 31.4475 49.3097 30.0621L52.1733 30.0721C52.1203 30.9272 52.2296 31.5403 52.5014 31.9116C52.7798 32.2761 53.214 32.4584 53.804 32.4584C54.321 32.4518 54.7287 32.2927 55.027 31.9812C55.3253 31.663 55.5109 31.2553 55.5838 30.7581Z" fill="white"/>
<path d="M10.4418 32.9954L10.9823 33.4819L11.1278 33.3203L11.1607 33.1054L10.4418 32.9954ZM8.34375 34.3775L8.59566 35.0597L8.60026 35.058L8.34375 34.3775ZM5.5696 34.8349L5.57936 34.1076L5.57515 34.1076L5.5696 34.8349ZM3.3125 34.2681L2.94119 34.8935L2.94605 34.8963L3.3125 34.2681ZM1.83097 32.6374L1.17565 32.9529L1.17926 32.9602L1.83097 32.6374ZM1.27415 30.1715L2.00117 30.1507L2.00086 30.1428L1.27415 30.1715ZM1.34375 28.6303L0.624459 28.5229L0.623258 28.5309L0.622236 28.539L1.34375 28.6303ZM1.70171 26.234L0.982617 26.1252L0.982414 26.1266L1.70171 26.234ZM7.60796 19.9599L7.59306 20.687L7.59397 20.687L7.60796 19.9599ZM10.7202 21.2127L10.1689 21.6871L10.1731 21.6919L10.7202 21.2127ZM11.794 24.7823L11.7914 25.5096L12.5275 25.5122L12.5213 24.7762L11.794 24.7823ZM9.01989 24.7724L8.29313 24.7996L8.31928 25.4971L9.01728 25.4996L9.01989 24.7724ZM8.99006 23.9769L9.71682 23.9496L9.7162 23.933L9.71482 23.9165L8.99006 23.9769ZM7.46875 22.376L7.44066 23.1028L7.44279 23.1029L7.46875 22.376ZM4.76421 25.0905L4.05564 24.9266L4.05319 24.9372L4.05106 24.9479L4.76421 25.0905ZM4.61506 25.8363L3.90191 25.6936L3.89791 25.7136L3.89504 25.7338L4.61506 25.8363ZM4.21733 28.6303L3.4973 28.5278L3.49664 28.5327L4.21733 28.6303ZM4.1179 30.261L3.39133 30.293L3.39135 30.2934L4.1179 30.261ZM4.61506 31.8817L4.06972 32.3629L4.07472 32.3686L4.07984 32.3741L4.61506 31.8817ZM5.89773 32.3988L5.91637 31.6717L5.91525 31.6717L5.89773 32.3988ZM7.62784 31.8917L7.97935 32.5284L8.27843 32.3632L8.34229 32.0276L7.62784 31.8917ZM8.13494 29.2269L8.8494 29.3629L9.01367 28.4996H8.13494V29.2269ZM6.13636 29.2269L5.42006 29.1011L5.27019 29.9542H6.13636V29.2269ZM6.52415 27.0195V26.2922H5.9135L5.80785 26.8937L6.52415 27.0195ZM11.3565 27.0195L12.0754 27.1296L12.2036 26.2922H11.3565V27.0195ZM9.90119 32.5088C9.45283 33.007 8.85628 33.4071 8.08724 33.6969L8.60026 35.058C9.55471 34.6982 10.3568 34.1769 10.9823 33.4819L9.90119 32.5088ZM8.09184 33.6952C7.31995 33.9802 6.48457 34.1198 5.57936 34.1076L5.55984 35.5621C6.63001 35.5764 7.64407 35.4111 8.59566 35.0597L8.09184 33.6952ZM5.57515 34.1076C4.81085 34.1018 4.18756 33.9366 3.67895 33.6399L2.94605 34.8963C3.71017 35.342 4.59161 35.5547 5.56405 35.5621L5.57515 34.1076ZM3.6838 33.6427C3.17664 33.3416 2.77622 32.9072 2.48267 32.3146L1.17926 32.9602C1.58836 33.7861 2.17564 34.4389 2.9412 34.8934L3.6838 33.6427ZM2.48624 32.3219C2.19274 31.7123 2.02521 30.9936 2.00112 30.1507L0.547173 30.1923C0.576121 31.2054 0.779799 32.1307 1.17569 32.9529L2.48624 32.3219ZM2.00086 30.1428C1.98262 29.6809 2.00378 29.2074 2.06527 28.7216L0.622236 28.539C0.551146 29.1006 0.525902 29.6545 0.547442 30.2002L2.00086 30.1428ZM2.06304 28.7378L2.421 26.3414L0.982414 26.1266L0.624459 28.5229L2.06304 28.7378ZM2.42079 26.3428C2.7118 24.4196 3.32649 23.0133 4.20684 22.0518L3.13408 21.0696C1.99927 22.3089 1.30146 24.0181 0.982619 26.1252L2.42079 26.3428ZM4.20684 22.0518C5.06025 21.1198 6.16491 20.6577 7.59306 20.687L7.62286 19.2327C5.81615 19.1957 4.29581 19.8008 3.13408 21.0696L4.20684 22.0518ZM7.59397 20.687C8.83022 20.7108 9.64484 21.0782 10.1689 21.6871L11.2714 20.7383C10.4035 19.7298 9.14327 19.262 7.62194 19.2327L7.59397 20.687ZM10.1731 21.6919C10.7169 22.3126 11.0543 23.3037 11.0668 24.7884L12.5213 24.7762C12.5072 23.1056 12.1288 21.7169 11.2672 20.7335L10.1731 21.6919ZM11.7966 24.055L9.02249 24.0451L9.01728 25.4996L11.7914 25.5096L11.7966 24.055ZM9.74665 24.7451L9.71682 23.9496L8.2633 24.0041L8.29313 24.7996L9.74665 24.7451ZM9.71482 23.9165C9.66351 23.3007 9.47865 22.7277 9.07229 22.3001C8.65559 21.8616 8.09671 21.6707 7.49471 21.6492L7.44279 23.1029C7.76882 23.1145 7.92751 23.207 8.01791 23.3021C8.11865 23.4081 8.23044 23.619 8.2653 24.0373L9.71482 23.9165ZM7.49684 21.6493C6.62488 21.6156 5.85403 21.8936 5.24829 22.5016C4.66538 23.0866 4.28749 23.9243 4.05564 24.9266L5.47277 25.2544C5.67179 24.3941 5.96009 23.848 6.2787 23.5282C6.57447 23.2313 6.94046 23.0834 7.44066 23.1028L7.49684 21.6493ZM4.05106 24.9479L3.90191 25.6936L5.32821 25.9789L5.47736 25.2332L4.05106 24.9479ZM3.89504 25.7338L3.49732 28.5278L4.93735 28.7328L5.33507 25.9388L3.89504 25.7338ZM3.49664 28.5327C3.40687 29.1956 3.36892 29.7851 3.39133 30.293L4.84446 30.2289C4.8271 29.8354 4.85545 29.3377 4.93803 28.7279L3.49664 28.5327ZM3.39135 30.2934C3.42747 31.1025 3.61017 31.8421 4.06972 32.3629L5.16039 31.4005C5.02335 31.2452 4.87461 30.9043 4.84445 30.2286L3.39135 30.2934ZM4.07984 32.3741C4.54707 32.882 5.17962 33.1089 5.88021 33.1258L5.91525 31.6717C5.51545 31.6621 5.2929 31.5443 5.15028 31.3893L4.07984 32.3741ZM5.87909 33.1258C6.56739 33.1435 7.27341 32.9181 7.97935 32.5284L7.27634 31.255C6.70955 31.5679 6.26216 31.6806 5.91637 31.6717L5.87909 33.1258ZM8.34229 32.0276L8.8494 29.3629L7.42049 29.0909L6.91339 31.7557L8.34229 32.0276ZM8.13494 28.4996H6.13636V29.9542H8.13494V28.4996ZM6.85267 29.3527L7.24045 27.1453L5.80785 26.8937L5.42006 29.1011L6.85267 29.3527ZM6.52415 27.7468H11.3565V26.2922H6.52415V27.7468ZM10.6376 26.9095L9.72286 32.8853L11.1607 33.1054L12.0754 27.1296L10.6376 26.9095ZM19.3906 31.6729L20.1154 31.6121L20.0594 30.9456H19.3906V31.6729ZM15.5426 31.6729V30.9456H15.062L14.8736 31.3878L15.5426 31.6729ZM14.2798 34.636V35.3633H14.7604L14.9489 34.9211L14.2798 34.636ZM11.1776 34.636L10.521 34.3231L10.0252 35.3633H11.1776V34.636ZM18.0781 20.1587V19.4314H17.6191L17.4216 19.8458L18.0781 20.1587ZM20.6932 20.1587L21.4143 20.0641L21.3313 19.4314H20.6932V20.1587ZM22.5923 34.636V35.3633H23.4212L23.3134 34.5414L22.5923 34.636ZM19.6392 34.636L18.9145 34.6968L18.9704 35.3633H19.6392V34.636ZM16.5866 29.2368L15.9181 28.9505L15.484 29.9641H16.5866V29.2368ZM19.1918 29.2368V29.9641H19.9791L19.9167 29.1792L19.1918 29.2368ZM18.7841 24.1062L19.5091 24.0486L18.1156 23.8198L18.7841 24.1062ZM19.3906 30.9456H15.5426V32.4002H19.3906V30.9456ZM14.8736 31.3878L13.6108 34.3509L14.9489 34.9211L16.2117 31.958L14.8736 31.3878ZM14.2798 33.9087H11.1776V35.3633H14.2798V33.9087ZM11.8341 34.9489L18.7346 20.4716L17.4216 19.8458L10.521 34.3231L11.8341 34.9489ZM18.0781 20.886H20.6932V19.4314H18.0781V20.886ZM19.9721 20.2533L21.8712 34.7306L23.3134 34.5414L21.4143 20.0641L19.9721 20.2533ZM22.5923 33.9087H19.6392V35.3633H22.5923V33.9087ZM20.3639 34.5752L20.1154 31.6121L18.6659 31.7337L18.9145 34.6968L20.3639 34.5752ZM16.5866 29.9641H19.1918V28.5096H16.5866V29.9641ZM19.9167 29.1792L19.5091 24.0486L18.0591 24.1638L18.4668 29.2944L19.9167 29.1792ZM18.1156 23.8198L15.9181 28.9505L17.2552 29.5232L19.4526 24.3925L18.1156 23.8198ZM30.2188 20.1587L30.9436 20.0999L30.8894 19.4314H30.2188V20.1587ZM31.0639 30.5692L30.339 30.6281L31.7328 30.8548L31.0639 30.5692ZM35.5085 20.1587V19.4314H35.0282L34.8397 19.8732L35.5085 20.1587ZM39.267 20.1587L39.9836 20.2832L40.1316 19.4314H39.267V20.1587ZM36.7514 34.636V35.3633H37.3632L37.468 34.7605L36.7514 34.636ZM33.8878 34.636L33.1712 34.5115L33.0233 35.3633H33.8878V34.636ZM34.5838 30.6289L33.8734 30.4732L33.87 30.4887L33.8673 30.5044L34.5838 30.6289ZM35.8366 24.9116L36.5471 25.0672L35.1749 24.6098L35.8366 24.9116ZM31.402 34.636V35.3633H31.8697L32.0637 34.9377L31.402 34.636ZM29.4631 34.636L28.7401 34.7147L28.8106 35.3633H29.4631V34.636ZM28.3693 24.5834L29.0923 24.5048L27.6483 24.488L28.3693 24.5834ZM27.544 30.8178L28.2608 30.941L28.2632 30.9272L28.265 30.9132L27.544 30.8178ZM26.8878 34.636V35.3633H27.5007L27.6045 34.7592L26.8878 34.636ZM24.0341 34.636L23.3175 34.512L23.1701 35.3633H24.0341V34.636ZM26.5398 20.1587V19.4314H25.9276L25.8232 20.0347L26.5398 20.1587ZM29.4939 20.2176L30.339 30.6281L31.7888 30.5104L30.9436 20.0999L29.4939 20.2176ZM31.7328 30.8548L36.1774 20.4443L34.8397 19.8732L30.3951 30.2837L31.7328 30.8548ZM35.5085 20.886H39.267V19.4314H35.5085V20.886ZM38.5505 20.0342L36.0349 34.5115L37.468 34.7605L39.9836 20.2832L38.5505 20.0342ZM36.7514 33.9087H33.8878V35.3633H36.7514V33.9087ZM34.6043 34.7604L35.3004 30.7533L33.8673 30.5044L33.1712 34.5115L34.6043 34.7604ZM35.2942 30.7846L36.5471 25.0672L35.1262 24.7559L33.8734 30.4732L35.2942 30.7846ZM35.1749 24.6098L30.7403 34.3342L32.0637 34.9377L36.4984 25.2133L35.1749 24.6098ZM31.402 33.9087H29.4631V35.3633H31.402V33.9087ZM30.1861 34.5573L29.0923 24.5048L27.6463 24.6621L28.7401 34.7147L30.1861 34.5573ZM27.6483 24.488L26.8231 30.7224L28.265 30.9132L29.0903 24.6789L27.6483 24.488ZM26.8273 30.6946L26.171 34.5128L27.6045 34.7592L28.2608 30.941L26.8273 30.6946ZM26.8878 33.9087H24.0341V35.3633H26.8878V33.9087ZM24.7507 34.76L27.2564 20.2827L25.8232 20.0347L23.3175 34.512L24.7507 34.76ZM26.5398 20.886H30.2188V19.4314H26.5398V20.886ZM47.4602 28.3718V29.0991H48.0699L48.1763 28.4987L47.4602 28.3718ZM43.0455 28.3718V27.6445H42.4335L42.3289 28.2474L43.0455 28.3718ZM42.3793 32.2099L41.6627 32.0855L41.5149 32.9371H42.3793V32.2099ZM47.6094 32.2099L48.3256 32.3361L48.476 31.4826H47.6094V32.2099ZM47.1818 34.636V35.3633H47.7921L47.8981 34.7622L47.1818 34.636ZM39.108 34.636L38.3913 34.512L38.244 35.3633H39.108V34.636ZM41.6136 20.1587V19.4314H41.0014L40.897 20.0347L41.6136 20.1587ZM49.6776 20.1587L50.3939 20.2844L50.5436 19.4314H49.6776V20.1587ZM49.25 22.5948V23.3221H49.8607L49.9663 22.7205L49.25 22.5948ZM44.0497 22.5948V21.8675H43.4383L43.3333 22.4698L44.0497 22.5948ZM43.4531 26.0152L42.7367 25.8903L42.588 26.7425H43.4531V26.0152ZM47.8778 26.0152L48.594 26.1422L48.7453 25.288H47.8778V26.0152ZM47.4602 27.6445H43.0455V29.0991H47.4602V27.6445ZM42.3289 28.2474L41.6627 32.0855L43.0958 32.3342L43.762 28.4962L42.3289 28.2474ZM42.3793 32.9371H47.6094V31.4826H42.3793V32.9371ZM46.8931 32.0836L46.4656 34.5098L47.8981 34.7622L48.3256 32.3361L46.8931 32.0836ZM47.1818 33.9087H39.108V35.3633H47.1818V33.9087ZM39.8246 34.76L42.3303 20.2827L40.897 20.0347L38.3913 34.512L39.8246 34.76ZM41.6136 20.886H49.6776V19.4314H41.6136V20.886ZM48.9612 20.033L48.5337 22.4691L49.9663 22.7205L50.3939 20.2844L48.9612 20.033ZM49.25 21.8675H44.0497V23.3221H49.25V21.8675ZM43.3333 22.4698L42.7367 25.8903L44.1696 26.1402L44.7662 22.7198L43.3333 22.4698ZM43.4531 26.7425H47.8778V25.288H43.4531V26.7425ZM47.1617 25.8883L46.7441 28.2449L48.1763 28.4987L48.594 26.1422L47.1617 25.8883ZM55.5838 30.7581L56.3034 30.8637L56.3045 30.8555L55.5838 30.7581ZM55.3651 29.5351L54.7469 29.9184L54.7515 29.9256L54.7561 29.9328L55.3651 29.5351ZM54.0625 28.5706L53.7452 29.2251L53.7531 29.2288L54.0625 28.5706ZM52.4119 27.5863L52.8524 27.0076L52.8518 27.0071L52.4119 27.5863ZM50.7415 24.0962L50.0162 24.0427L50.016 24.0449L50.7415 24.0962ZM51.4972 21.9385L50.9037 21.5182L50.9028 21.5194L51.4972 21.9385ZM53.2969 20.457L52.988 19.7986L53.2969 20.457ZM55.7031 19.9599L55.6862 20.6869L55.6876 20.687L55.7031 19.9599ZM58.6065 21.2525L58.0478 21.7181L58.0518 21.7228L58.6065 21.2525ZM59.581 24.4442L59.5784 25.1715L60.2791 25.1739L60.3076 24.4739L59.581 24.4442ZM56.7372 24.4343L56.011 24.3953L55.97 25.1589L56.7347 25.1616L56.7372 24.4343ZM55.4347 22.3661L55.4147 23.0931L55.4193 23.0932L55.4347 22.3661ZM54.1818 22.8434L54.6806 23.3727L54.6809 23.3724L54.1818 22.8434ZM53.5554 24.1062L52.8352 24.0046L52.834 24.0137L53.5554 24.1062ZM57.6918 27.9542L57.1072 28.3869L57.1093 28.3897L57.6918 27.9542ZM58.4176 30.7383L59.1426 30.7955L59.1426 30.7954L58.4176 30.7383ZM56.9261 33.761L57.3929 34.3187L57.3954 34.3166L56.9261 33.761ZM53.5753 34.8448L53.5897 34.1177H53.5896L53.5753 34.8448ZM49.3097 30.0621L49.3122 29.3349L48.6165 29.3324L48.5832 30.0274L49.3097 30.0621ZM52.1733 30.0721L52.8992 30.1171L52.9469 29.3475L52.1758 29.3448L52.1733 30.0721ZM52.5014 31.9116L51.9146 32.3412L51.9189 32.3471L51.9234 32.3529L52.5014 31.9116ZM53.804 32.4584V33.1858L53.8133 33.1856L53.804 32.4584ZM55.027 31.9812L55.5523 32.4841L55.5576 32.4786L55.027 31.9812ZM56.3045 30.8555C56.3876 30.241 56.3056 29.6452 55.974 29.1375L54.7561 29.9328C54.8488 30.0747 54.9126 30.2943 54.8631 30.6608L56.3045 30.8555ZM55.9832 29.1519C55.6628 28.6352 55.0671 28.2392 54.3719 27.9124L53.7531 29.2288C54.3837 29.5252 54.6563 29.7722 54.7469 29.9184L55.9832 29.1519ZM54.3798 27.9162C53.7546 27.6131 53.2485 27.3091 52.8524 27.0076L51.9714 28.165C52.4636 28.5396 53.0579 28.8918 53.7452 29.2251L54.3798 27.9162ZM52.8518 27.0071C51.8153 26.2199 51.3864 25.2852 51.4669 24.1475L50.016 24.0449C49.8976 25.7179 50.5824 27.1099 51.972 28.1654L52.8518 27.0071ZM51.4668 24.1497C51.5173 23.4653 51.7274 22.8739 52.0915 22.3577L50.9028 21.5194C50.3787 22.2626 50.085 23.1097 50.0162 24.0427L51.4668 24.1497ZM52.0906 22.3589C52.4642 21.8315 52.9633 21.4167 53.6057 21.1155L52.988 19.7986C52.1323 20.1999 51.4316 20.7729 50.9037 21.5182L52.0906 22.3589ZM53.6057 21.1155C54.2494 20.8135 54.9396 20.6696 55.6862 20.6869L55.72 19.2328C54.7564 19.2104 53.8424 19.3978 52.988 19.7986L53.6057 21.1155ZM55.6876 20.687C56.7496 20.7097 57.5062 21.0681 58.0478 21.7181L59.1652 20.7869C58.3148 19.7664 57.1358 19.2631 55.7187 19.2327L55.6876 20.687ZM58.0518 21.7228C58.614 22.3857 58.9014 23.2597 58.8543 24.4146L60.3076 24.4739C60.3666 23.0303 60.0044 21.7764 59.1612 20.7821L58.0518 21.7228ZM59.5835 23.717L56.7398 23.707L56.7347 25.1616L59.5784 25.1715L59.5835 23.717ZM57.4634 24.4733C57.5031 23.7345 57.4167 23.0424 57.0817 22.5105C56.7123 21.9241 56.1207 21.6532 55.45 21.639L55.4193 23.0932C55.6899 23.0989 55.786 23.1826 55.8509 23.2856C55.9501 23.4431 56.0443 23.7751 56.011 24.3953L57.4634 24.4733ZM55.4546 21.6391C54.7788 21.6206 54.1744 21.8505 53.6827 22.3144L54.6809 23.3724C54.8919 23.1733 55.1227 23.0851 55.4147 23.0931L55.4546 21.6391ZM53.6831 22.3141C53.2056 22.7639 52.9287 23.3418 52.8352 24.0046L54.2755 24.2077C54.3279 23.8364 54.4686 23.5724 54.6806 23.3727L53.6831 22.3141ZM52.834 24.0137C52.6707 25.2879 53.6145 26.1704 54.8574 26.7533L55.475 25.4363C54.3712 24.9188 54.2413 24.4755 54.2768 24.1986L52.834 24.0137ZM54.8574 26.7533C55.9727 27.2763 56.6961 27.8315 57.1073 28.3869L58.2763 27.5214C57.6666 26.698 56.7063 26.0137 55.475 25.4363L54.8574 26.7533ZM57.1093 28.3897C57.5576 28.9892 57.7671 29.7349 57.6926 30.6811L59.1426 30.7954C59.2404 29.5541 58.966 28.4438 58.2742 27.5186L57.1093 28.3897ZM57.6926 30.681C57.6071 31.7637 57.191 32.5855 56.4569 33.2053L57.3954 34.3166C58.4511 33.4251 59.0292 32.2317 59.1426 30.7955L57.6926 30.681ZM56.4593 33.2033C55.7189 33.8231 54.7807 34.1412 53.5897 34.1177L53.5609 35.5719C55.0479 35.6014 56.3436 35.197 57.3929 34.3187L56.4593 33.2033ZM53.5896 34.1177C52.417 34.0946 51.5576 33.7055 50.9293 32.992L49.8377 33.9533C50.7738 35.0163 52.0423 35.542 53.561 35.5719L53.5896 34.1177ZM50.9293 32.992C50.2933 32.2697 49.9772 31.3284 50.0361 30.0969L48.5832 30.0274C48.5096 31.5667 48.9094 32.899 49.8377 33.9533L50.9293 32.992ZM49.3071 30.7894L52.1708 30.7993L52.1758 29.3448L49.3122 29.3349L49.3071 30.7894ZM51.4474 30.0271C51.3918 30.9236 51.4864 31.7563 51.9146 32.3412L53.0882 31.4819C52.9729 31.3244 52.8487 30.9308 52.8992 30.1171L51.4474 30.0271ZM51.9234 32.3529C52.3774 32.9475 53.0583 33.1857 53.804 33.1857V31.7312C53.3697 31.7312 53.1822 31.6048 53.0794 31.4702L51.9234 32.3529ZM53.8133 33.1856C54.4838 33.177 55.0927 32.9641 55.5523 32.4841L54.5017 31.4782C54.3646 31.6213 54.1582 31.7266 53.7947 31.7312L53.8133 33.1856ZM55.5576 32.4786C55.9722 32.0363 56.2123 31.4846 56.3034 30.8637L54.8642 30.6526C54.8095 31.026 54.6783 31.2897 54.4964 31.4837L55.5576 32.4786Z" fill="#040404" mask="url(#path-15-outside-6_855_123)"/>
<defs>
<clipPath id="clip0_855_123">
<rect width="10.8807" height="10.8807" fill="white" transform="translate(16.9998 3.27319)"/>
</clipPath>
</defs>
</svg>
