<svg width="20" height="24" viewBox="0 0 20 24" fill="none" xmlns="http://www.w3.org/2000/svg">
<g id="Group 5">
<path id="Vector" d="M19 5.64917L11 1.02967C10.696 0.854131 10.3511 0.761719 10 0.761719C9.64895 0.761719 9.30406 0.854131 9.00002 1.02967L1.00002 5.64917C0.847282 5.73745 0.706898 5.84556 0.58252 5.97067L10 11.4067L19.4175 5.96967C19.2931 5.84491 19.1527 5.73714 19 5.64917ZM11.118 6.35617C10.7726 6.53217 10.3904 6.62392 10.0028 6.62392C9.6151 6.62392 9.23293 6.53217 8.88752 6.35617C8.26902 5.99917 8.26252 5.41917 8.87702 5.06217C9.22368 4.88614 9.60698 4.7944 9.99577 4.7944C10.3846 4.7944 10.7679 4.88614 11.1145 5.06217C11.2495 5.10805 11.3667 5.19495 11.4499 5.31073C11.5331 5.4265 11.578 5.56537 11.5784 5.70792C11.5787 5.85047 11.5346 5.98957 11.452 6.1058C11.3695 6.22202 11.2527 6.30956 11.118 6.35617Z" fill="#DCDCE6"/>
<path id="Vector_2" d="M0.0780001 6.83398C0.0268177 7.01183 0.000567166 7.19592 0 7.38098V16.619C0.00018439 16.9699 0.0926844 17.3146 0.268212 17.6184C0.443739 17.9222 0.696116 18.1745 1 18.35L9 22.9685C9.1566 23.0588 9.32483 23.1273 9.5 23.172V12.272L0.0780001 6.83398ZM2.2525 12.504C1.98086 12.328 1.75484 12.0901 1.59299 11.8097C1.43115 11.5294 1.33811 11.2147 1.3215 10.8915C1.3215 10.3005 1.7415 10.0625 2.259 10.361C2.52929 10.5368 2.7542 10.774 2.91539 11.0533C3.07657 11.3326 3.16947 11.646 3.1865 11.968C3.185 12.563 2.767 12.8 2.2525 12.504ZM4.5 16.467C4.22832 16.2909 4.00228 16.0529 3.84044 15.7725C3.6786 15.4921 3.58557 15.1773 3.569 14.854C3.569 14.2635 3.9885 14.025 4.506 14.324C4.77653 14.4996 5.00164 14.7368 5.16293 15.0161C5.32422 15.2954 5.41711 15.6089 5.434 15.931C5.431 16.5255 5.013 16.7635 4.5 16.467ZM6.746 20.4295C6.47436 20.2535 6.24834 20.0156 6.08649 19.7352C5.92465 19.4549 5.83161 19.1402 5.815 18.817C5.815 18.226 6.2345 17.988 6.752 18.2865C7.02244 18.4622 7.24749 18.6994 7.40877 18.9787C7.57005 19.258 7.66299 19.5714 7.68 19.8935C7.677 20.488 7.2585 20.7265 6.7445 20.4295H6.746Z" fill="#DCDCE6"/>
<path id="Vector_3" d="M19.922 6.83398L10.5 12.2735V23.1735C10.6752 23.1288 10.8434 23.0603 11 22.97L19 18.35C19.304 18.1745 19.5565 17.922 19.732 17.618C19.9076 17.3139 20 16.969 20 16.618V7.38098C19.9994 7.19592 19.9732 7.01183 19.922 6.83398ZM13.622 12.7555C14.1395 12.4555 14.5575 12.695 14.559 13.2895C14.5424 13.6123 14.4494 13.9266 14.2877 14.2066C14.1261 14.4866 13.9003 14.7242 13.629 14.9C13.115 15.197 12.6935 14.9605 12.6915 14.37C12.7083 14.0465 12.8015 13.7315 12.9634 13.4509C13.1253 13.1703 13.3513 12.932 13.623 12.7555H13.622ZM13.64 19.1885C13.126 19.485 12.7045 19.249 12.703 18.658C12.7199 18.3348 12.8131 18.0202 12.9749 17.7399C13.1367 17.4597 13.3626 17.2217 13.634 17.0455C14.1515 16.7455 14.5695 16.985 14.5715 17.5795C14.5541 17.902 14.4608 18.2159 14.2991 18.4955C14.1374 18.7751 13.9119 19.0126 13.641 19.1885H13.64ZM17.356 10.6C17.8735 10.3 18.2915 10.5395 18.2935 11.134C18.2764 11.4566 18.1831 11.7707 18.0213 12.0503C17.8595 12.33 17.6337 12.5674 17.3625 12.743C16.848 13.04 16.43 12.8015 16.4285 12.211C16.4449 11.8883 16.5375 11.5741 16.6987 11.2941C16.8599 11.0141 17.0852 10.7762 17.356 10.6ZM17.3745 17.033C16.8605 17.33 16.4425 17.0915 16.4405 16.501C16.4568 16.1782 16.5495 15.8639 16.7108 15.5839C16.8721 15.3039 17.0975 15.0661 17.3685 14.89C17.886 14.59 18.304 14.8295 18.3055 15.424C18.2885 15.7467 18.1953 16.0607 18.0334 16.3404C17.8716 16.6201 17.6458 16.8574 17.3745 17.033Z" fill="#DCDCE6"/>
</g>
</svg>
